<svg version="1.1" xmlns="http://www.w3.org/2000/svg" xmlns:xlink="http://www.w3.org/1999/xlink" viewBox="0 0 171 171"><g fill="none" fill-rule="nonzero" stroke="none" stroke-width="1" stroke-linecap="butt" stroke-linejoin="miter" stroke-miterlimit="10" stroke-dasharray="" stroke-dashoffset="0" font-family="none" font-weight="none" font-size="none" text-anchor="none" style="mix-blend-mode: normal"><path d="M0,171.98863v-171.98863h171.98863v171.98863z" fill="none"></path><g><path d="M22.23,46.17c-1.88881,0 -3.42,1.53119 -3.42,3.42c0,1.88881 1.53119,3.42 3.42,3.42c1.88881,0 3.42,-1.53119 3.42,-3.42c0,-1.88881 -1.53119,-3.42 -3.42,-3.42z" fill="#78a0cf"></path><path d="M131.67,20.52c-0.94441,0 -1.71,0.76559 -1.71,1.71c0,0.94441 0.76559,1.71 1.71,1.71c0.94441,0 1.71,-0.76559 1.71,-1.71c0,-0.94441 -0.76559,-1.71 -1.71,-1.71z" fill="#f1bc19"></path><path d="M85.5,22.23c-34.94306,0 -63.27,28.32694 -63.27,63.27c0,34.94306 28.32694,63.27 63.27,63.27c34.94306,0 63.27,-28.32694 63.27,-63.27c0,-34.94306 -28.32694,-63.27 -63.27,-63.27z" fill="#cee1f4"></path><path d="M141.93,18.81c-3.77763,0 -6.84,3.06237 -6.84,6.84c0,3.77763 3.06237,6.84 6.84,6.84c3.77763,0 6.84,-3.06237 6.84,-6.84c0,-3.77763 -3.06237,-6.84 -6.84,-6.84z" fill="#f1bc19"></path><path d="M148.77,37.62c-1.88881,0 -3.42,1.53119 -3.42,3.42c0,1.88881 1.53119,3.42 3.42,3.42c1.88881,0 3.42,-1.53119 3.42,-3.42c0,-1.88881 -1.53119,-3.42 -3.42,-3.42z" fill="#78a0cf"></path><path d="M138.51,126.54c-1.88881,0 -3.42,1.53119 -3.42,3.42c0,1.88881 1.53119,3.42 3.42,3.42c1.88881,0 3.42,-1.53119 3.42,-3.42c0,-1.88881 -1.53119,-3.42 -3.42,-3.42zM25.65,100.89c-3.77763,0 -6.84,3.06237 -6.84,6.84c0,3.77763 3.06237,6.84 6.84,6.84c3.77763,0 6.84,-3.06237 6.84,-6.84c0,-3.77763 -3.06237,-6.84 -6.84,-6.84z" fill="#fbcd59"></path><path d="M42.75,145.35c-1.88881,0 -3.42,1.53119 -3.42,3.42c0,1.88881 1.53119,3.42 3.42,3.42c1.88881,0 3.42,-1.53119 3.42,-3.42c0,-1.88881 -1.53119,-3.42 -3.42,-3.42z" fill="#78a0cf"></path><path d="M31.635,87.21c-2.36102,0 -4.275,1.91398 -4.275,4.275c0,2.36102 1.91398,4.275 4.275,4.275c2.36102,0 4.275,-1.91398 4.275,-4.275c0,-2.36102 -1.91398,-4.275 -4.275,-4.275z" fill="#ffffff"></path><path d="M35.91,112.86c-0.94441,0 -1.71,0.76559 -1.71,1.71c0,0.94441 0.76559,1.71 1.71,1.71c0.94441,0 1.71,-0.76559 1.71,-1.71c0,-0.94441 -0.76559,-1.71 -1.71,-1.71z" fill="#f1bc19"></path><path d="M136.8,56.43c-0.94441,0 -1.71,0.76559 -1.71,1.71c0,0.94441 0.76559,1.71 1.71,1.71c0.94441,0 1.71,-0.76559 1.71,-1.71c0,-0.94441 -0.76559,-1.71 -1.71,-1.71z" fill="#ffffff"></path><path d="M81.225,54.68922c-1.71,-9.37422 -18.25767,-15.38829 -21.26727,-4.91625c-2.67273,14.35203 21.26727,10.89954 21.26727,10.89954z" fill="#fde751"></path><path d="M75.40758,62.23887c-4.75038,0 -11.12868,-0.73872 -14.50935,-4.26132c-2.04687,-2.13408 -2.75823,-4.96755 -2.11527,-8.42517c1.25514,-4.39128 4.66317,-6.68781 9.33489,-6.4809c5.94909,0.29583 13.10886,4.94703 14.28534,11.40057l0.02052,0.21546v7.02126l-1.02771,0.14877c-0.24453,0.03591 -2.736,0.38133 -5.98842,0.38133zM67.52106,45.4518c-2.09133,0 -5.27535,0.69255 -6.4125,4.6512c-0.47538,2.5821 0.01197,4.6512 1.51506,6.21756c4.06638,4.23567 14.15367,3.61152 17.40438,3.28662v-4.80852c-1.02087,-5.20695 -7.13241,-9.09378 -12.02985,-9.3366c-0.15048,-0.00684 -0.31122,-0.01026 -0.47709,-0.01026z" fill="#472b29"></path><path d="M89.775,54.68922c1.71,-9.37422 18.25767,-15.38829 21.26727,-4.91625c2.67273,14.35203 -21.26727,10.89954 -21.26727,10.89954z" fill="#fde751"></path><path d="M95.59242,62.23887c-3.25242,0 -5.74389,-0.34542 -5.98842,-0.38304l-1.026,-0.14535l0.02052,-7.23672c1.17648,-6.45354 8.33625,-11.10474 14.28534,-11.40057c4.68369,-0.2052 8.07975,2.08962 9.30753,6.36975c0.67032,3.56877 -0.04104,6.40224 -2.08962,8.53632c-3.38067,3.5226 -9.75726,4.25961 -14.50935,4.25961zM90.972,59.60547c3.25071,0.32148 13.34484,0.94392 17.40609,-3.28833c1.50138,-1.56636 1.98873,-3.63546 1.48599,-6.327c-1.20042,-4.16043 -4.80681,-4.62726 -6.86223,-4.52637c-4.89744,0.24282 -11.00898,4.12965 -12.02985,9.3366z" fill="#472b29"></path><path d="M59.50458,125.343c-6.69294,0 -12.13758,-5.44464 -12.13758,-12.13758v-38.31084c0,-6.69294 5.44464,-12.13758 12.13758,-12.13758h51.99084c6.69294,0 12.13758,5.44464 12.13758,12.13758v38.31084c0,6.69294 -5.44464,12.13758 -12.13758,12.13758z" fill="#ea5167"></path><path d="M111.49713,63.954c6.03288,0 10.93887,4.9077 10.93887,10.93887v38.31255c0,6.03288 -4.9077,10.93887 -10.93887,10.93887h-51.99426c-6.03288,0 -10.93887,-4.9077 -10.93887,-10.93887v-38.31255c0,-6.03288 4.9077,-10.93887 10.93887,-10.93887h51.99426M111.49713,61.56h-51.99426c-7.33248,0 -13.33287,6.00039 -13.33287,13.33287v38.31255c0,7.33419 6.00039,13.33458 13.33287,13.33458h51.99255c7.33419,0 13.33458,-6.00039 13.33458,-13.33287v-38.31426c0,-7.33248 -6.00039,-13.33287 -13.33287,-13.33287z" fill="#472b29"></path><g><path d="M84.75957,68.913c-2.70351,0 -4.90257,-2.19906 -4.90257,-4.90257v-4.89915c0,-2.70351 2.19906,-4.90257 4.90257,-4.90257h1.47915c2.70351,0 4.90257,2.19906 4.90257,4.90257v4.89915c0,2.70351 -2.19906,4.90257 -4.90257,4.90257z" fill="#fde751"></path><path d="M86.23872,55.404c2.04345,0 3.70557,1.66212 3.70557,3.70728v4.89915c0,2.04345 -1.66212,3.70728 -3.70557,3.70728h-1.47915c-2.04345,0 -3.70557,-1.66212 -3.70557,-3.70728v-4.89915c0,-2.04345 1.66212,-3.70728 3.70557,-3.70728h1.47915M86.23872,53.01h-1.47915c-3.35502,0 -6.09957,2.74455 -6.09957,6.10128v4.89915c0,3.35502 2.74455,6.09957 6.10128,6.09957h1.47915c3.35502,0 6.09957,-2.74455 6.09957,-6.10128v-4.89915c0,-3.35502 -2.74455,-6.09957 -6.10128,-6.09957z" fill="#472b29"></path></g><g><path d="M47.76543,82.593c-1.1628,0 -2.10672,-0.94563 -2.10672,-2.10672v-7.41969c0,-6.62796 5.38992,-12.01788 12.01788,-12.01788h55.64853c6.62796,0 12.01788,5.38992 12.01788,12.01788v7.41969c0,1.1628 -0.94563,2.10672 -2.10672,2.10672z" fill="#ea5167"></path><path d="M113.32341,62.244c5.9679,0 10.82259,4.85469 10.82259,10.82259v7.41969c0,0.50103 -0.40869,0.90972 -0.90972,0.90972h-75.47256c-0.50103,0 -0.90972,-0.40869 -0.90972,-0.90972v-7.41969c0,-5.9679 4.85469,-10.82259 10.82259,-10.82259h55.64682M113.32341,59.85h-55.64682c-7.29999,0 -13.21659,5.9166 -13.21659,13.21659v7.41969c0,1.82457 1.47915,3.30372 3.30372,3.30372h75.47256c1.82457,0 3.30372,-1.47915 3.30372,-3.30372v-7.41969c0,-7.29999 -5.9166,-13.21659 -13.21659,-13.21659z" fill="#472b29"></path></g><g><path d="M101.86299,49.49082c1.42956,-0.33174 2.94462,-0.27189 4.44258,0.47709" fill="#fde751"></path><path d="M106.30557,50.39541c-0.06498,0 -0.12996,-0.01539 -0.19152,-0.04446c-1.27224,-0.63783 -2.67273,-0.78489 -4.1553,-0.4446c-0.23769,0.06156 -0.45999,-0.09063 -0.513,-0.31977c-0.05301,-0.23085 0.09063,-0.4617 0.31977,-0.513c1.68606,-0.39159 3.27636,-0.21717 4.73328,0.51129c0.21033,0.10602 0.29583,0.36252 0.18981,0.57456c-0.07524,0.14877 -0.22572,0.23598 -0.38304,0.23598z" fill="#472b29"></path></g><g><path d="M94.05,55.00557c0,0 1.98189,-2.54277 4.78287,-4.23225" fill="#fde751"></path><path d="M94.05,55.43307c-0.09234,0 -0.18468,-0.03078 -0.26163,-0.09063c-0.18639,-0.14535 -0.22059,-0.41382 -0.07524,-0.60021c0.08379,-0.10773 2.06397,-2.62485 4.89915,-4.33656c0.20007,-0.1197 0.46341,-0.05814 0.58653,0.14535c0.12141,0.20178 0.05643,0.46341 -0.14535,0.58653c-2.69496,1.62621 -4.64778,4.10571 -4.66659,4.12965c-0.0855,0.10944 -0.21033,0.16587 -0.33687,0.16587z" fill="#472b29"></path></g><g><path d="M64.76625,49.37625c0,0 6.94602,-1.60398 11.64852,5.66523" fill="#fde751"></path><path d="M76.41648,55.46898c-0.14022,0 -0.27702,-0.0684 -0.3591,-0.19494c-4.47507,-6.91524 -10.9269,-5.54382 -11.19537,-5.47884c-0.22572,0.05472 -0.45828,-0.09234 -0.51129,-0.32148c-0.05301,-0.22914 0.09063,-0.45999 0.31977,-0.51129c0.07524,-0.01539 7.29828,-1.58175 12.10509,5.8482c0.12825,0.19836 0.07182,0.46341 -0.12654,0.59166c-0.07353,0.04446 -0.1539,0.06669 -0.23256,0.06669z" fill="#472b29"></path></g><g fill="#472b29"><path d="M108.79362,119.7h-24.14862c-0.47196,0 -0.855,-0.38304 -0.855,-0.855c0,-0.47196 0.38304,-0.855 0.855,-0.855h24.14862c4.12794,0 7.48638,-3.35844 7.48638,-7.48638v-3.62862c0,-0.47196 0.38304,-0.855 0.855,-0.855c0.47196,0 0.855,0.38304 0.855,0.855v3.62862c0,5.07186 -4.12452,9.19638 -9.19638,9.19638z"></path></g><g fill="#472b29"><path d="M117.135,100.74807c-0.47196,0 -0.855,-0.38304 -0.855,-0.855v-11.40057c0,-0.47196 0.38304,-0.855 0.855,-0.855c0.47196,0 0.855,0.38304 0.855,0.855v11.40057c0,0.47196 -0.38304,0.855 -0.855,0.855z"></path></g><g fill="#472b29"><path d="M74.385,119.7h-12.17862c-5.07186,0 -9.19638,-4.12452 -9.19638,-9.19638v-3.62862c0,-0.47196 0.38304,-0.855 0.855,-0.855c0.47196,0 0.855,0.38304 0.855,0.855v3.62862c0,4.12794 3.35844,7.48638 7.48638,7.48638h12.17862c0.47196,0 0.855,0.38304 0.855,0.855c0,0.47196 -0.38304,0.855 -0.855,0.855z"></path></g><g fill="#472b29"><path d="M53.865,102.6c-0.47196,0 -0.855,-0.38304 -0.855,-0.855v-6.84c0,-0.47196 0.38304,-0.855 0.855,-0.855c0.47196,0 0.855,0.38304 0.855,0.855v6.84c0,0.47196 -0.38304,0.855 -0.855,0.855z"></path></g><g fill="#472b29"><path d="M53.865,91.485c-0.47196,0 -0.855,-0.38304 -0.855,-0.855v-3.42c0,-0.47196 0.38304,-0.855 0.855,-0.855c0.47196,0 0.855,0.38304 0.855,0.855v3.42c0,0.47196 -0.38304,0.855 -0.855,0.855z"></path></g><g><path d="M78.147,61.047h14.706v64.296h-14.706z" fill="#fde751"></path><path d="M91.656,62.244v61.902h-12.312v-61.902h12.312M94.05,59.85h-17.1v66.69h17.1v-66.69z" fill="#472b29"></path></g><g fill="#472b29"><path d="M88.065,74.8125c-0.23598,0 -0.4275,-0.19152 -0.4275,-0.4275v-8.55c0,-0.23598 0.19152,-0.4275 0.4275,-0.4275c0.23598,0 0.4275,0.19152 0.4275,0.4275v8.55c0,0.23598 -0.19152,0.4275 -0.4275,0.4275z"></path></g><g fill="#472b29"><path d="M88.065,119.2725c-0.23598,0 -0.4275,-0.19152 -0.4275,-0.4275v-39.33c0,-0.23598 0.19152,-0.4275 0.4275,-0.4275c0.23598,0 0.4275,0.19152 0.4275,0.4275v39.33c0,0.23598 -0.19152,0.4275 -0.4275,0.4275z"></path></g></g></g></svg>