<svg version="1.1" xmlns="http://www.w3.org/2000/svg" xmlns:xlink="http://www.w3.org/1999/xlink" viewBox="0 0 172 172"><g fill="none" fill-rule="nonzero" stroke="none" stroke-width="1" stroke-linecap="butt" stroke-linejoin="miter" stroke-miterlimit="10" stroke-dasharray="" stroke-dashoffset="0" font-family="none" font-weight="none" font-size="none" text-anchor="none" style="mix-blend-mode: normal"><path d="M0,172v-172h172v172z" fill="none"></path><g><circle cx="77" cy="13" transform="scale(1.72,1.72)" r="1" fill="#f1bc19"></circle><circle cx="50" cy="50" transform="scale(1.72,1.72)" r="37" fill="#e4e4f9"></circle><circle cx="83" cy="15" transform="scale(1.72,1.72)" r="4" fill="#f1bc19"></circle><circle cx="87" cy="24" transform="scale(1.72,1.72)" r="2" fill="#8889b9"></circle><circle cx="81" cy="76" transform="scale(1.72,1.72)" r="2" fill="#fbcd59"></circle><circle cx="15" cy="63" transform="scale(1.72,1.72)" r="4" fill="#fbcd59"></circle><circle cx="25" cy="87" transform="scale(1.72,1.72)" r="2" fill="#8889b9"></circle><circle cx="23.5" cy="67.5" transform="scale(1.72,1.72)" r="2.5" fill="#ffffff"></circle><circle cx="77.5" cy="30.5" transform="scale(1.72,1.72)" r="1.5" fill="#ffffff"></circle><g><path d="M99.14424,126.56276l-16.79924,-87.28484c-0.18232,-0.96664 -1.11972,-1.59616 -2.08636,-1.40352v0c-0.94772,0.19092 -1.56692,1.10596 -1.38804,2.05368l16.66508,86.63468z" fill="#9f8066"></path><path d="M99.6654,126.99276h-4.48404l-16.73388,-86.98384c-0.22016,-1.17476 0.55384,-2.32028 1.72516,-2.55592c0.58308,-0.11696 1.17132,0.00172 1.66324,0.33196c0.4902,0.33024 0.82216,0.83248 0.93052,1.41212zM95.89,126.13276h2.7348l-16.7012,-86.774c-0.06708,-0.35432 -0.26832,-0.65876 -0.56588,-0.86c-0.29756,-0.20124 -0.66048,-0.27348 -1.01308,-0.20124c-0.7138,0.14276 -1.18336,0.83936 -1.05092,1.55316z" fill="#472b29"></path></g><g><path d="M81.11348,43.33712l44.05608,20.64l-76.65868,13.40568z" fill="#ffce00"></path><path d="M81.35944,44.82148l39.83864,18.62932l-69.27816,12.11568l29.43952,-30.745M80.99824,42.07808c-0.21672,0 -0.42828,0.086 -0.5848,0.2494l-33.60364,35.09316c-0.50396,0.52632 -0.10664,1.36912 0.57448,1.36912c0.04816,0 0.09804,-0.00344 0.14964,-0.01376l79.077,-13.8288c0.77916,-0.13588 0.9202,-1.1954 0.20296,-1.5308l-45.47336,-21.26264c-0.11008,-0.04988 -0.22704,-0.07568 -0.34228,-0.07568z" fill="#472b29"></path></g><g fill="#472b29"><path d="M69.66,127.28h-18.92c-0.47472,0 -0.86,-0.38528 -0.86,-0.86c0,-0.47472 0.38528,-0.86 0.86,-0.86h18.92c0.47472,0 0.86,0.38528 0.86,0.86c0,0.47472 -0.38528,0.86 -0.86,0.86z"></path></g><g fill="#472b29"><path d="M126.42,127.28h-51.6c-0.47472,0 -0.86,-0.38528 -0.86,-0.86c0,-0.47472 0.38528,-0.86 0.86,-0.86h51.6c0.47472,0 0.86,0.38528 0.86,0.86c0,0.47472 -0.38528,0.86 -0.86,0.86z"></path></g><g fill="#472b29"><path d="M66.79276,74.82c-0.14276,0 -0.28724,-0.03612 -0.41968,-0.11008c-0.41452,-0.2322 -0.56244,-0.7568 -0.32852,-1.17132l7.31,-13.04276c0.23048,-0.4128 0.75336,-0.56244 1.17132,-0.33024c0.41452,0.2322 0.56244,0.7568 0.32852,1.17132l-7.31,13.04276c-0.15824,0.28208 -0.45064,0.44032 -0.75164,0.44032z"></path></g><g fill="#472b29"><path d="M86.28552,71.38c-0.4042,0 -0.7654,-0.28724 -0.84452,-0.69832l-2.29276,-12.04c-0.08944,-0.46612 0.21672,-0.91676 0.68284,-1.0062c0.47472,-0.086 0.91676,0.21844 1.0062,0.68456l2.29276,12.04c0.08944,0.46612 -0.21672,0.91676 -0.68284,1.0062c-0.05332,0.0086 -0.10836,0.01376 -0.16168,0.01376z"></path></g><g fill="#472b29"><path d="M105.20724,67.65276c-0.19952,0 -0.39904,-0.0688 -0.56244,-0.20984l-11.61,-10.03276c-0.35948,-0.31132 -0.39732,-0.85312 -0.08772,-1.2126c0.31132,-0.3612 0.85484,-0.39732 1.2126,-0.08944l11.61,10.03276c0.35948,0.31132 0.39732,0.85312 0.08772,1.2126c-0.17028,0.19952 -0.40936,0.29928 -0.65016,0.29928z"></path></g></g></g></svg>