<svg version="1.1" xmlns="http://www.w3.org/2000/svg" xmlns:xlink="http://www.w3.org/1999/xlink" viewBox="0 0 172 172"><g fill="none" fill-rule="nonzero" stroke="none" stroke-width="1" stroke-linecap="butt" stroke-linejoin="miter" stroke-miterlimit="10" stroke-dasharray="" stroke-dashoffset="0" font-family="none" font-weight="none" font-size="none" text-anchor="none" style="mix-blend-mode: normal"><path d="M0,172v-172h172v172z" fill="none"></path><g><path d="M22.36,46.44c-1.89986,0 -3.44,1.54014 -3.44,3.44c0,1.89986 1.54014,3.44 3.44,3.44c1.89986,0 3.44,-1.54014 3.44,-3.44c0,-1.89986 -1.54014,-3.44 -3.44,-3.44z" fill="#78a0cf"></path><path d="M132.44,20.64c-0.94993,0 -1.72,0.77007 -1.72,1.72c0,0.94993 0.77007,1.72 1.72,1.72c0.94993,0 1.72,-0.77007 1.72,-1.72c0,-0.94993 -0.77007,-1.72 -1.72,-1.72z" fill="#f1bc19"></path><path d="M86,22.36c-35.1474,0 -63.64,28.4926 -63.64,63.64c0,35.1474 28.4926,63.64 63.64,63.64c35.1474,0 63.64,-28.4926 63.64,-63.64c0,-35.1474 -28.4926,-63.64 -63.64,-63.64z" fill="#cee1f4"></path><path d="M142.76,18.92c-3.79972,0 -6.88,3.08028 -6.88,6.88c0,3.79972 3.08028,6.88 6.88,6.88c3.79972,0 6.88,-3.08028 6.88,-6.88c0,-3.79972 -3.08028,-6.88 -6.88,-6.88z" fill="#f1bc19"></path><path d="M149.64,37.84c-1.89986,0 -3.44,1.54014 -3.44,3.44c0,1.89986 1.54014,3.44 3.44,3.44c1.89986,0 3.44,-1.54014 3.44,-3.44c0,-1.89986 -1.54014,-3.44 -3.44,-3.44z" fill="#78a0cf"></path><path d="M139.32,127.28c-1.89986,0 -3.44,1.54014 -3.44,3.44c0,1.89986 1.54014,3.44 3.44,3.44c1.89986,0 3.44,-1.54014 3.44,-3.44c0,-1.89986 -1.54014,-3.44 -3.44,-3.44zM25.8,101.48c-3.79972,0 -6.88,3.08028 -6.88,6.88c0,3.79972 3.08028,6.88 6.88,6.88c3.79972,0 6.88,-3.08028 6.88,-6.88c0,-3.79972 -3.08028,-6.88 -6.88,-6.88z" fill="#fbcd59"></path><path d="M43,146.2c-1.89986,0 -3.44,1.54014 -3.44,3.44c0,1.89986 1.54014,3.44 3.44,3.44c1.89986,0 3.44,-1.54014 3.44,-3.44c0,-1.89986 -1.54014,-3.44 -3.44,-3.44z" fill="#78a0cf"></path><path d="M31.82,87.72c-2.37482,0 -4.3,1.92518 -4.3,4.3c0,2.37482 1.92518,4.3 4.3,4.3c2.37482,0 4.3,-1.92518 4.3,-4.3c0,-2.37482 -1.92518,-4.3 -4.3,-4.3z" fill="#ffffff"></path><path d="M36.12,113.52c-0.94993,0 -1.72,0.77007 -1.72,1.72c0,0.94993 0.77007,1.72 1.72,1.72c0.94993,0 1.72,-0.77007 1.72,-1.72c0,-0.94993 -0.77007,-1.72 -1.72,-1.72z" fill="#f1bc19"></path><path d="M137.6,56.76c-0.94993,0 -1.72,0.77007 -1.72,1.72c0,0.94993 0.77007,1.72 1.72,1.72c0.94993,0 1.72,-0.77007 1.72,-1.72c0,-0.94993 -0.77007,-1.72 -1.72,-1.72z" fill="#ffffff"></path><path d="M73.47668,107.156c-0.31992,-9.34304 -4.34988,-14.91412 -8.25256,-20.31148c-3.73412,-5.16344 -7.26012,-10.03964 -7.26012,-18.04452c0,-12.68844 11.26428,-26.27128 28.036,-26.27128c16.77172,0 28.036,13.58284 28.036,26.27128c0,8.00488 -3.526,12.88108 -7.26012,18.04452c-3.90268,5.39736 -7.93264,10.96844 -8.25256,20.31148z" fill="#fde751"></path><path d="M86,43.731c16.05104,0 26.832,12.96192 26.832,25.069c0,7.61616 -3.2594,12.12256 -7.03308,17.34104c-3.66876,5.074 -7.78988,10.77064 -8.4194,19.81268h-10.49372h-1.77504h-10.49372c-0.62952,-9.04204 -4.74892,-14.73868 -8.4194,-19.81268c-3.77024,-5.21848 -7.02964,-9.72488 -7.02964,-17.34104c0,-12.10708 10.78096,-25.069 26.832,-25.069M86,41.323c-17.2,0 -29.24,13.717 -29.24,27.477c0,17.2 15.53332,20.64 15.53332,39.56h12.81916h1.77504h12.81916c0,-18.92 15.53332,-22.36 15.53332,-39.56c0,-13.76 -12.04,-27.477 -29.24,-27.477z" fill="#472b29"></path><path d="M86,129.516c-3.1304,0 -5.676,-2.5456 -5.676,-5.676v-6.02c0,-3.12868 2.5456,-5.676 5.676,-5.676c3.1304,0 5.676,2.5456 5.676,5.676v6.02c0,3.12868 -2.5456,5.676 -5.676,5.676z" fill="#28262d"></path><path d="M86,113.348c2.46648,0 4.472,2.00724 4.472,4.472v6.02c0,2.46648 -2.00552,4.472 -4.472,4.472c-2.46648,0 -4.472,-2.00724 -4.472,-4.472v-6.02c0,-2.46648 2.00552,-4.472 4.472,-4.472M86,110.94c-3.784,0 -6.88,3.096 -6.88,6.88v6.02c0,3.784 3.096,6.88 6.88,6.88c3.784,0 6.88,-3.096 6.88,-6.88v-6.02c0,-3.784 -3.096,-6.88 -6.88,-6.88z" fill="#472b29"></path><path d="M79.765,122.636c-3.48472,0 -6.321,-2.83456 -6.321,-6.321v-10.191h25.112v10.191c0,3.48472 -2.83456,6.321 -6.321,6.321z" fill="#d6d3c5"></path><path d="M97.352,107.328v8.987c0,2.8208 -2.2962,5.117 -5.117,5.117h-12.47c-2.8208,0 -5.117,-2.2962 -5.117,-5.117v-8.987h22.704M99.76,104.92h-27.52v11.395c0,4.15552 3.36948,7.525 7.525,7.525h12.47c4.15552,0 7.525,-3.36948 7.525,-7.525v-11.395z" fill="#472b29"></path><path d="M90.3,105.78c-0.47472,0 -0.86,-0.38528 -0.86,-0.86v-24.00432c0,-0.23392 0.0946,-0.45752 0.26316,-0.61748l5.22192,-5.03788c0.63984,-0.61748 0.99072,-1.43964 0.99072,-2.31684c0,-0.8772 -0.3526,-1.69764 -0.99072,-2.31684c-1.34848,-1.2986 -3.54148,-1.29688 -4.88652,0.00172l-3.44,3.31788c-0.33196,0.32336 -0.86172,0.32336 -1.19368,0l-3.44,-3.3196c-1.34676,-1.2986 -3.53976,-1.29688 -4.88652,0.00172c-0.63984,0.61576 -0.99072,1.43792 -0.99072,2.31512c0,0.8772 0.3526,1.69764 0.99072,2.31684l5.22192,5.03788c0.16512,0.15996 0.25972,0.38356 0.25972,0.61748v24.00432c0,0.47472 -0.38528,0.86 -0.86,0.86c-0.47472,0 -0.86,-0.38528 -0.86,-0.86v-23.63968l-4.95876,-4.78332c-0.97868,-0.94428 -1.51704,-2.20504 -1.51704,-3.5518c0,-1.34676 0.53836,-2.60924 1.51704,-3.5518c2.00552,-1.93328 5.26836,-1.935 7.2756,-0.00172l2.84316,2.74168l2.84316,-2.7434c2.00552,-1.93328 5.26836,-1.935 7.2756,-0.00172c0.97868,0.946 1.51704,2.20676 1.51704,3.55352c0,1.34676 -0.53836,2.60924 -1.51704,3.5518l-4.95876,4.78676v23.63968c0,0.47472 -0.38528,0.86 -0.86,0.86zM87.72,113.52h-14.60968c-0.47472,0 -0.86516,-0.38528 -0.86516,-0.86c0,-0.47472 0.38012,-0.86 0.85484,-0.86h14.62c0.47472,0 0.86,0.38528 0.86,0.86c0,0.47472 -0.38528,0.86 -0.86,0.86z" fill="#472b29"></path><g fill="#472b29"><path d="M98.04,113.52h-5.15656v-1.72h5.15656c0.47472,0 0.86,0.38528 0.86,0.86c0,0.47472 -0.38528,0.86 -0.86,0.86z"></path></g><g fill="#472b29"><path d="M87.72,118.68h-13.74968c-0.47472,0 -0.86516,-0.38528 -0.86516,-0.86c0,-0.47472 0.38012,-0.86 0.85484,-0.86h13.76c0.47472,0 0.86,0.38528 0.86,0.86c0,0.47472 -0.38528,0.86 -0.86,0.86z"></path></g><g fill="#472b29"><path d="M98.04,118.68h-5.15656v-1.72h5.15656c0.47472,0 0.86,0.38528 0.86,0.86c0,0.47472 -0.38528,0.86 -0.86,0.86z"></path></g><g fill="#472b29"><path d="M129,70.52h-7.73312c-0.47472,0 -0.86172,-0.38528 -0.86172,-0.86c0,-0.47472 0.38012,-0.86 0.85484,-0.86h7.74c0.47472,0 0.86,0.38528 0.86,0.86c0,0.47472 -0.38528,0.86 -0.86,0.86z"></path></g><g fill="#472b29"><path d="M127.10284,82.32092c-0.07912,0 -0.15824,-0.01032 -0.23736,-0.0344l-7.43384,-2.12764c-0.4558,-0.13072 -0.72412,-0.60716 -0.5934,-1.06296c0.13244,-0.4558 0.60716,-0.72412 1.05952,-0.59168l7.44072,2.12936c0.45752,0.13072 0.72068,0.60716 0.58996,1.06296c-0.10836,0.38012 -0.45236,0.62436 -0.8256,0.62436z"></path></g><g fill="#472b29"><path d="M122.02884,93.14488c-0.1548,0 -0.31304,-0.04128 -0.45408,-0.13072l-6.5618,-4.09188l0.92708,-1.44824l6.5446,4.08156c0.40248,0.25112 0.52632,0.78088 0.2752,1.18336c-0.1634,0.26316 -0.44376,0.40592 -0.731,0.40592z"></path></g><g fill="#472b29"><path d="M120.2022,61.02388c-0.3698,0 -0.71208,-0.23908 -0.82388,-0.60888c-0.1376,-0.44548 0.10492,-0.91848 0.54696,-1.0664l7.49576,-2.08808c0.4558,-0.12556 0.93224,0.13932 1.05952,0.59856c0.12728,0.45752 -0.14104,0.93052 -0.59684,1.0578l-7.45104,2.07432c-0.07568,0.02408 -0.15308,0.03268 -0.23048,0.03268z"></path></g><g fill="#472b29"><path d="M116.63148,52.16416c-0.35948,0 -0.6966,-0.22704 -0.817,-0.58824c-0.13588,-0.40248 0.04472,-0.83592 0.40936,-1.03028l6.58416,-3.97836c0.40764,-0.24768 0.93568,-0.11524 1.18164,0.29068c0.24596,0.40592 0.11524,0.93568 -0.29068,1.18164l-6.79228,4.07984c-0.09288,0.03096 -0.18404,0.04472 -0.2752,0.04472z"></path></g><g fill="#472b29"><path d="M50.96188,70.52h-7.74c-0.47472,0 -0.86,-0.38528 -0.86,-0.86c0,-0.47472 0.38528,-0.86 0.86,-0.86h7.73484c0.47472,0 0.86172,0.38528 0.86172,0.86c0,0.47472 -0.38012,0.86 -0.85656,0.86z"></path></g><g fill="#472b29"><path d="M45.11904,82.32092c-0.37324,0 -0.71724,-0.24596 -0.8256,-0.62264c-0.13072,-0.45752 0.13416,-0.93224 0.58996,-1.06296l7.43556,-2.12764c0.45236,-0.13932 0.92192,0.12384 1.06124,0.57104c0.13932,0.4472 -0.1032,0.92192 -0.54696,1.06984l-7.47512,2.13968c-0.07912,0.02236 -0.15996,0.03268 -0.23908,0.03268z"></path></g><g fill="#472b29"><path d="M50.19476,93.14488c-0.28724,0 -0.5676,-0.14276 -0.731,-0.4042c-0.25112,-0.40248 -0.129,-0.93396 0.2752,-1.18336l6.5618,-4.09188c0.39732,-0.2494 0.92536,-0.13416 1.18164,0.26144c0.25456,0.39388 0.14792,0.91848 -0.24424,1.17992l-6.58932,4.10908c-0.14276,0.08772 -0.29928,0.129 -0.45408,0.129z"></path></g><g fill="#472b29"><path d="M51.7892,60.99292l-7.45104,-2.07432c-0.45752,-0.12728 -0.72412,-0.602 -0.59684,-1.0578c0.12728,-0.45924 0.602,-0.72412 1.05952,-0.59856l7.45104,2.07432z"></path></g><g fill="#472b29"><path d="M55.59384,52.16588c-0.08944,0 -0.1806,-0.01376 -0.27176,-0.043l-0.17888,-0.08256l-6.62028,-3.999c-0.40592,-0.24596 -0.53664,-0.774 -0.29068,-1.18164c0.24424,-0.40592 0.77056,-0.53836 1.18164,-0.29068l6.60308,3.98868c0.34916,0.19952 0.52116,0.62264 0.38872,1.01824c-0.11696,0.3612 -0.45236,0.58996 -0.81184,0.58996z"></path></g></g></g></svg>