<svg version="1.1" xmlns="http://www.w3.org/2000/svg" xmlns:xlink="http://www.w3.org/1999/xlink" viewBox="0 0 172 172"><g fill="none" fill-rule="nonzero" stroke="none" stroke-width="1" stroke-linecap="butt" stroke-linejoin="miter" stroke-miterlimit="10" stroke-dasharray="" stroke-dashoffset="0" font-family="none" font-weight="none" font-size="none" text-anchor="none" style="mix-blend-mode: normal"><path d="M0,172v-172h172v172z" fill="none"></path><g><path d="M22.36,46.44c-1.89986,0 -3.44,1.54014 -3.44,3.44c0,1.89986 1.54014,3.44 3.44,3.44c1.89986,0 3.44,-1.54014 3.44,-3.44c0,-1.89986 -1.54014,-3.44 -3.44,-3.44z" fill="#ee3e54"></path><path d="M132.44,20.64c-0.94993,0 -1.72,0.77007 -1.72,1.72c0,0.94993 0.77007,1.72 1.72,1.72c0.94993,0 1.72,-0.77007 1.72,-1.72c0,-0.94993 -0.77007,-1.72 -1.72,-1.72z" fill="#f1bc19"></path><path d="M86,22.36c-35.1474,0 -63.64,28.4926 -63.64,63.64c0,35.1474 28.4926,63.64 63.64,63.64c35.1474,0 63.64,-28.4926 63.64,-63.64c0,-35.1474 -28.4926,-63.64 -63.64,-63.64z" fill="#fce0a2"></path><path d="M142.76,18.92c-3.79972,0 -6.88,3.08028 -6.88,6.88c0,3.79972 3.08028,6.88 6.88,6.88c3.79972,0 6.88,-3.08028 6.88,-6.88c0,-3.79972 -3.08028,-6.88 -6.88,-6.88z" fill="#f1bc19"></path><path d="M149.64,37.84c-1.89986,0 -3.44,1.54014 -3.44,3.44c0,1.89986 1.54014,3.44 3.44,3.44c1.89986,0 3.44,-1.54014 3.44,-3.44c0,-1.89986 -1.54014,-3.44 -3.44,-3.44z" fill="#ee3e54"></path><path d="M139.32,127.28c-1.89986,0 -3.44,1.54014 -3.44,3.44c0,1.89986 1.54014,3.44 3.44,3.44c1.89986,0 3.44,-1.54014 3.44,-3.44c0,-1.89986 -1.54014,-3.44 -3.44,-3.44zM25.8,101.48c-3.79972,0 -6.88,3.08028 -6.88,6.88c0,3.79972 3.08028,6.88 6.88,6.88c3.79972,0 6.88,-3.08028 6.88,-6.88c0,-3.79972 -3.08028,-6.88 -6.88,-6.88z" fill="#fbcd59"></path><path d="M43,146.2c-1.89986,0 -3.44,1.54014 -3.44,3.44c0,1.89986 1.54014,3.44 3.44,3.44c1.89986,0 3.44,-1.54014 3.44,-3.44c0,-1.89986 -1.54014,-3.44 -3.44,-3.44z" fill="#ee3e54"></path><path d="M31.82,87.72c-2.37482,0 -4.3,1.92518 -4.3,4.3c0,2.37482 1.92518,4.3 4.3,4.3c2.37482,0 4.3,-1.92518 4.3,-4.3c0,-2.37482 -1.92518,-4.3 -4.3,-4.3z" fill="#ffffff"></path><path d="M36.12,113.52c-0.94993,0 -1.72,0.77007 -1.72,1.72c0,0.94993 0.77007,1.72 1.72,1.72c0.94993,0 1.72,-0.77007 1.72,-1.72c0,-0.94993 -0.77007,-1.72 -1.72,-1.72z" fill="#f1bc19"></path><path d="M137.6,56.76c-0.94993,0 -1.72,0.77007 -1.72,1.72c0,0.94993 0.77007,1.72 1.72,1.72c0.94993,0 1.72,-0.77007 1.72,-1.72c0,-0.94993 -0.77007,-1.72 -1.72,-1.72z" fill="#ffffff"></path><path d="M72.584,104.576v-10.2254c0,-5.36296 4.36192,-9.72488 9.72488,-9.72488h5.66052c5.36296,0 9.72488,4.36192 9.72488,9.72488v10.2254z" fill="#48bed8"></path><path d="M87.97112,85.828c4.69904,0 8.52088,3.82356 8.52088,8.52088v9.02312h-22.704v-9.02312c0,-4.69732 3.82184,-8.52088 8.52088,-8.52088h5.66224M87.97112,83.42h-5.66224c-6.03548,0 -10.92888,4.8934 -10.92888,10.92888v11.43112h27.52v-11.43112c0,-6.03548 -4.8934,-10.92888 -10.92888,-10.92888z" fill="#472b29"></path><path d="M78.26,105.78c-0.47472,0 -0.86,-0.38528 -0.86,-0.86v-11.18c0,-0.47472 0.38528,-0.86 0.86,-0.86c0.47472,0 0.86,0.38528 0.86,0.86v11.18c0,0.47472 -0.38528,0.86 -0.86,0.86zM92.02,105.78c-0.47472,0 -0.86,-0.38528 -0.86,-0.86v-11.18c0,-0.47472 0.38528,-0.86 0.86,-0.86c0.47472,0 0.86,0.38528 0.86,0.86v11.18c0,0.47472 -0.38528,0.86 -0.86,0.86z" fill="#472b29"></path><path d="M85.14,68.284c-4.55966,0 -8.256,3.69634 -8.256,8.256c0,4.55966 3.69634,8.256 8.256,8.256c4.55966,0 8.256,-3.69634 8.256,-8.256c0,-4.55966 -3.69634,-8.256 -8.256,-8.256z" fill="#fddbbc"></path><path d="M85.14,69.488c3.88892,0 7.052,3.16308 7.052,7.052c0,3.88892 -3.16308,7.052 -7.052,7.052c-3.88892,0 -7.052,-3.16308 -7.052,-7.052c0,-3.88892 3.16308,-7.052 7.052,-7.052M85.14,67.08c-5.22536,0 -9.46,4.23464 -9.46,9.46c0,5.22536 4.23464,9.46 9.46,9.46c5.22536,0 9.46,-4.23464 9.46,-9.46c0,-5.22536 -4.23464,-9.46 -9.46,-9.46z" fill="#472b29"></path><g fill="#472b29"><path d="M85.14,123.84c-0.47472,0 -0.86,-0.38528 -0.86,-0.86v-12.04c0,-0.47472 0.38528,-0.86 0.86,-0.86c0.47472,0 0.86,0.38528 0.86,0.86v12.04c0,0.47472 -0.38528,0.86 -0.86,0.86z"></path></g><g><path d="M51.6,111.284c-3.13477,0 -5.676,2.54123 -5.676,5.676c0,3.13477 2.54123,5.676 5.676,5.676c3.13477,0 5.676,-2.54123 5.676,-5.676c0,-3.13477 -2.54123,-5.676 -5.676,-5.676z" fill="#a1d3a2"></path><path d="M51.6,112.488c2.46648,0 4.472,2.00724 4.472,4.472c0,2.46476 -2.00552,4.472 -4.472,4.472c-2.46648,0 -4.472,-2.00724 -4.472,-4.472c0,-2.46476 2.00552,-4.472 4.472,-4.472M51.6,110.08c-3.79948,0 -6.88,3.08052 -6.88,6.88c0,3.79948 3.08052,6.88 6.88,6.88c3.79948,0 6.88,-3.08052 6.88,-6.88c0,-3.79948 -3.08052,-6.88 -6.88,-6.88z" fill="#472b29"></path></g><g><path d="M86,121.604c-3.13477,0 -5.676,2.54123 -5.676,5.676c0,3.13477 2.54123,5.676 5.676,5.676c3.13477,0 5.676,-2.54123 5.676,-5.676c0,-3.13477 -2.54123,-5.676 -5.676,-5.676z" fill="#a1d3a2"></path><path d="M86,122.808c2.46648,0 4.472,2.00724 4.472,4.472c0,2.46476 -2.00552,4.472 -4.472,4.472c-2.46648,0 -4.472,-2.00724 -4.472,-4.472c0,-2.46476 2.00552,-4.472 4.472,-4.472M86,120.4c-3.79948,0 -6.88,3.08052 -6.88,6.88c0,3.79948 3.08052,6.88 6.88,6.88c3.79948,0 6.88,-3.08052 6.88,-6.88c0,-3.79948 -3.08052,-6.88 -6.88,-6.88z" fill="#472b29"></path></g><g><path d="M118.68,111.284c-3.13477,0 -5.676,2.54123 -5.676,5.676c0,3.13477 2.54123,5.676 5.676,5.676c3.13477,0 5.676,-2.54123 5.676,-5.676c0,-3.13477 -2.54123,-5.676 -5.676,-5.676z" fill="#a1d3a2"></path><path d="M118.68,112.488c2.46648,0 4.472,2.00724 4.472,4.472c0,2.46476 -2.00552,4.472 -4.472,4.472c-2.46648,0 -4.472,-2.00724 -4.472,-4.472c0,-2.46476 2.00552,-4.472 4.472,-4.472M118.68,110.08c-3.79948,0 -6.88,3.08052 -6.88,6.88c0,3.79948 3.08052,6.88 6.88,6.88c3.79948,0 6.88,-3.08052 6.88,-6.88c0,-3.79948 -3.08052,-6.88 -6.88,-6.88z" fill="#472b29"></path></g><g fill="#472b29"><path d="M55.95504,113.391c-0.22016,0 -0.44032,-0.08428 -0.60888,-0.25112c-0.3354,-0.3354 -0.3354,-0.88064 0,-1.21604l8.42456,-8.42456c0.3354,-0.33712 0.92192,-0.37496 1.25732,-0.04128c0.33368,0.3354 0.37668,0.83936 0.03956,1.17648l-8.50712,8.50712c-0.16512,0.16512 -0.38528,0.2494 -0.60544,0.2494z"></path></g><g fill="#472b29"><path d="M113.44604,113.391c-0.22016,0 -0.44032,-0.08428 -0.60888,-0.25112l-7.138,-7.138c-0.33368,-0.33368 -0.37152,-0.90988 -0.03784,-1.247c0.33024,-0.33368 0.83592,-0.37668 1.1782,-0.04472l7.2154,7.21368c0.3354,0.3354 0.3354,0.88064 0,1.21604c-0.16856,0.16684 -0.38872,0.25112 -0.60888,0.25112z"></path></g><g fill="#472b29"><path d="M85.14,61.92c-0.47472,0 -0.86,-0.38528 -0.86,-0.86v-11.96088c0,-0.47472 0.38528,-0.89784 0.86,-0.89784c0.47472,0 0.86,0.344 0.86,0.82044v12.04c0,0.473 -0.38528,0.85828 -0.86,0.85828z"></path></g><g><path d="M118.68,49.364c-3.13477,0 -5.676,2.54123 -5.676,5.676c0,3.13477 2.54123,5.676 5.676,5.676c3.13477,0 5.676,-2.54123 5.676,-5.676c0,-3.13477 -2.54123,-5.676 -5.676,-5.676z" fill="#a1d3a2"></path><path d="M118.68,50.568c2.46648,0 4.472,2.00724 4.472,4.472c0,2.46476 -2.00552,4.472 -4.472,4.472c-2.46648,0 -4.472,-2.00724 -4.472,-4.472c0,-2.46476 2.00552,-4.472 4.472,-4.472M118.68,48.16c-3.79948,0 -6.88,3.08052 -6.88,6.88c0,3.79948 3.08052,6.88 6.88,6.88c3.79948,0 6.88,-3.08052 6.88,-6.88c0,-3.79948 -3.08052,-6.88 -6.88,-6.88z" fill="#472b29"></path></g><g><path d="M86,37.324c-3.13477,0 -5.676,2.54123 -5.676,5.676c0,3.13477 2.54123,5.676 5.676,5.676c3.13477,0 5.676,-2.54123 5.676,-5.676c0,-3.13477 -2.54123,-5.676 -5.676,-5.676z" fill="#a1d3a2"></path><path d="M86,38.528c2.46648,0 4.472,2.00724 4.472,4.472c0,2.46476 -2.00552,4.472 -4.472,4.472c-2.46648,0 -4.472,-2.00724 -4.472,-4.472c0,-2.46476 2.00552,-4.472 4.472,-4.472M86,36.12c-3.79948,0 -6.88,3.08052 -6.88,6.88c0,3.79948 3.08052,6.88 6.88,6.88c3.79948,0 6.88,-3.08052 6.88,-6.88c0,-3.79948 -3.08052,-6.88 -6.88,-6.88z" fill="#472b29"></path></g><g><path d="M51.6,49.364c-3.13477,0 -5.676,2.54123 -5.676,5.676c0,3.13477 2.54123,5.676 5.676,5.676c3.13477,0 5.676,-2.54123 5.676,-5.676c0,-3.13477 -2.54123,-5.676 -5.676,-5.676z" fill="#a1d3a2"></path><path d="M51.6,50.568c2.46648,0 4.472,2.00724 4.472,4.472c0,2.46476 -2.00552,4.472 -4.472,4.472c-2.46648,0 -4.472,-2.00724 -4.472,-4.472c0,-2.46476 2.00552,-4.472 4.472,-4.472M51.6,48.16c-3.79948,0 -6.88,3.08052 -6.88,6.88c0,3.79948 3.08052,6.88 6.88,6.88c3.79948,0 6.88,-3.08052 6.88,-6.88c0,-3.79948 -3.08052,-6.88 -6.88,-6.88z" fill="#472b29"></path></g><g fill="#472b29"><path d="M105.83676,69.5998c-0.21672,0 -0.43,-0.07568 -0.58824,-0.2322c-0.33368,-0.3354 -0.37668,-0.83936 -0.03956,-1.17648l8.50712,-8.50712c0.3354,-0.3354 0.88064,-0.3354 1.21604,0c0.3354,0.3354 0.3354,0.88064 0,1.21604l-8.42456,8.42456c-0.17888,0.17888 -0.42656,0.2752 -0.6708,0.2752z"></path></g><g fill="#472b29"><path d="M63.9926,68.34248c-0.19608,0 -0.39216,-0.07396 -0.5504,-0.22876l-7.2154,-7.21368c-0.3354,-0.3354 -0.3354,-0.88064 0,-1.21604c0.3354,-0.3354 0.88064,-0.3354 1.21604,0l7.138,7.138c0.33368,0.33368 0.37152,0.90988 0.03784,1.247c-0.17544,0.1806 -0.40076,0.27348 -0.62608,0.27348z"></path></g></g></g></svg>