<svg version="1.1" xmlns="http://www.w3.org/2000/svg" xmlns:xlink="http://www.w3.org/1999/xlink" viewBox="0 0 172 172"><g fill="none" fill-rule="nonzero" stroke="none" stroke-width="1" stroke-linecap="butt" stroke-linejoin="miter" stroke-miterlimit="10" stroke-dasharray="" stroke-dashoffset="0" font-family="none" font-weight="none" font-size="none" text-anchor="none" style="mix-blend-mode: normal"><path d="M0,172v-172h172v172z" fill="none"></path><g><circle cx="77" cy="13" transform="scale(1.72,1.72)" r="1" fill="#f1bc19"></circle><circle cx="50" cy="50" transform="scale(1.72,1.72)" r="37" fill="#e4e4f9"></circle><circle cx="83" cy="15" transform="scale(1.72,1.72)" r="4" fill="#f1bc19"></circle><circle cx="87" cy="24" transform="scale(1.72,1.72)" r="2" fill="#8889b9"></circle><circle cx="81" cy="76" transform="scale(1.72,1.72)" r="2" fill="#fbcd59"></circle><circle cx="15" cy="63" transform="scale(1.72,1.72)" r="4" fill="#fbcd59"></circle><circle cx="25" cy="87" transform="scale(1.72,1.72)" r="2" fill="#8889b9"></circle><circle cx="79.5" cy="33.5" transform="scale(1.72,1.72)" r="1.5" fill="#ffffff"></circle><path d="M123.16576,60.39952l-32.6198,72.09724c-2.15172,4.50984 -8.56216,4.50984 -10.71388,0l-32.71784,-72.29676c25.86536,-14.4222 51.23708,-14.9726 76.05152,0.19952z" fill="#f5e690"></path><path d="M85.14,91.16c-4.69904,0 -7.35644,-4.05748 -7.46824,-4.2312c-0.51256,-0.7998 -0.28036,-1.86276 0.51944,-2.37704c0.79636,-0.51428 1.86276,-0.28208 2.37704,0.51944c0.01204,0.01892 1.77676,2.6488 4.57176,2.6488c2.795,0 4.55972,-2.62988 4.57864,-2.6574c0.51944,-0.78948 1.58412,-1.01824 2.37704,-0.50052c0.79292,0.516 1.0234,1.57036 0.51256,2.36672c-0.1118,0.17372 -2.7692,4.2312 -7.46824,4.2312z" fill="#472b29"></path><circle cx="41" cy="44" transform="scale(1.72,1.72)" r="2.5" fill="#1f212b"></circle><circle cx="41" cy="43" transform="scale(1.72,1.72)" r="1" fill="#ffffff"></circle><circle cx="58" cy="44" transform="scale(1.72,1.72)" r="2.5" fill="#1f212b"></circle><path d="M103.03832,104.88732l6.36916,-14.07648l0.56244,-2.91368c-1.32096,-0.7224 -2.81392,-1.17132 -4.42556,-1.17132c-5.12216,0 -9.27424,4.15208 -9.27424,9.27424c0,4.24668 2.87068,7.78816 6.7682,8.88724z" fill="#ff9592"></path><path d="M67.32596,104.86152c3.8528,-1.1266 6.68392,-4.64572 6.68392,-8.86316c0,-5.12216 -4.15208,-9.27424 -9.27424,-9.27424c-1.61164,0 -3.10632,0.44892 -4.42728,1.17132l0.49192,2.5456z" fill="#ff9592"></path><circle cx="58" cy="43" transform="scale(1.72,1.72)" r="1" fill="#ffffff"></circle><path d="M97.27804,100.63892c-0.15652,0 -0.30788,-0.086 -0.38356,-0.23564c-0.70004,-1.37256 -1.05436,-2.85348 -1.05436,-4.40492c0,-5.3492 4.35332,-9.70424 9.70424,-9.70424c1.09564,0 2.17064,0.17888 3.1906,0.53664c0.2236,0.07912 0.344,0.32336 0.26488,0.54696c-0.07912,0.22532 -0.32336,0.33712 -0.54696,0.26488c-0.93052,-0.32336 -1.9092,-0.48848 -2.90852,-0.48848c-4.8762,0 -8.84424,3.96804 -8.84424,8.84424c0,1.41212 0.32336,2.76232 0.96148,4.01448c0.10836,0.21156 0.02408,0.46956 -0.18748,0.57792c-0.06364,0.03268 -0.13072,0.04816 -0.19608,0.04816z" fill="#472b29"></path><path d="M101.91,104.96472c-0.05676,0 -0.11352,-0.01204 -0.16856,-0.0344c-0.91332,-0.39044 -1.75784,-0.91504 -2.51292,-1.56348c-0.1806,-0.1548 -0.20124,-0.42484 -0.04644,-0.60716c0.15652,-0.17888 0.43,-0.20124 0.60716,-0.04472c0.688,0.58996 1.46028,1.06812 2.29276,1.42244c0.21844,0.0946 0.31992,0.34572 0.22704,0.56416c-0.07224,0.16684 -0.23048,0.26316 -0.39904,0.26316z" fill="#472b29"></path><path d="M63.1756,87.84384c-0.17372,0 -0.33712,-0.10664 -0.40248,-0.27692c-0.08428,-0.2236 0.02752,-0.46956 0.25112,-0.55384c1.02168,-0.387 2.09668,-0.58308 3.19576,-0.58308c0.23736,0 0.43,0.19264 0.43,0.43c0,0.23736 -0.19264,0.43 -0.43,0.43c-0.99588,0 -1.96768,0.17716 -2.89304,0.52632c-0.04988,0.01892 -0.10148,0.02752 -0.15136,0.02752z" fill="#472b29"></path><path d="M69.918,88.73652c-0.08256,0 -0.16684,-0.02408 -0.2408,-0.07396c-0.84624,-0.57104 -1.77504,-0.98556 -2.7606,-1.23668c-0.23048,-0.05848 -0.3698,-0.2924 -0.31132,-0.52288c0.05848,-0.23048 0.28896,-0.3784 0.52288,-0.31132c1.08188,0.27348 2.10012,0.731 3.02892,1.35708c0.1978,0.13244 0.2494,0.39904 0.11524,0.59684c-0.08084,0.12384 -0.21672,0.19092 -0.35432,0.19092z" fill="#472b29"></path><path d="M74.00988,96.42836c-0.23736,0 -0.43,-0.19264 -0.43,-0.43c0,-1.80944 -0.5418,-3.54664 -1.56692,-5.02584c-0.13588,-0.19436 -0.086,-0.4644 0.10836,-0.59856c0.19264,-0.13588 0.46268,-0.08772 0.59856,0.10836c1.12488,1.62368 1.72,3.53288 1.72,5.51604c0,0.23736 -0.19264,0.43 -0.43,0.43z" fill="#472b29"></path><g fill="#472b29"><path d="M68.44568,104.93376c-0.16512,0 -0.32336,-0.09632 -0.39388,-0.25628c-0.0946,-0.21844 0.00344,-0.47128 0.22188,-0.5676c2.41144,-1.05436 4.21572,-3.10288 4.95188,-5.62096c0.06536,-0.22876 0.301,-0.35948 0.5332,-0.2924c0.22704,0.06708 0.35776,0.30616 0.29068,0.53492c-0.8084,2.7606 -2.78812,5.01036 -5.43348,6.16792c-0.05504,0.02236 -0.1118,0.0344 -0.17028,0.0344z"></path></g><g fill="#472b29"><path d="M85.7592,51.61032v0c11.58764,0 23.1254,3.28176 34.32432,9.75928l-31.70992,70.09172c-0.60028,1.25904 -1.79052,2.01068 -3.18372,2.01068c-1.3932,0 -2.58344,-0.75164 -3.16308,-1.96768l-31.79592,-70.25856c12.06408,-6.39496 24.00776,-9.63544 35.52832,-9.63544M85.7592,49.20232c-12.75036,0 -25.63488,3.74444 -38.64324,10.99768l32.71784,72.29848c1.075,2.2532 3.21468,3.38152 5.35608,3.38152c2.13968,0 4.28108,-1.12832 5.35608,-3.38324l32.6198,-72.09724c-12.33412,-7.54048 -24.80584,-11.19892 -37.40656,-11.1972z"></path></g><g><path d="M122.92496,63.14808c-0.94084,0 -1.85588,-0.19952 -2.71932,-0.59684c-9.69908,-4.45824 -21.54472,-6.71832 -35.2084,-6.71832c-13.62068,0 -25.38548,2.18956 -34.96416,6.51192c-0.8514,0.38356 -1.7544,0.57792 -2.67976,0.57792c-2.52324,0 -4.82804,-1.46544 -5.8738,-3.7324c-0.70864,-1.53596 -0.77228,-3.25424 -0.1806,-4.83664c0.59856,-1.60648 1.79568,-2.881 3.3712,-3.59308c12.01076,-5.41456 25.91868,-8.27836 40.2222,-8.27836c14.53744,0 28.63112,2.94808 40.75884,8.52604c1.57036,0.72068 2.75888,2.0038 3.3454,3.612c0.58136,1.58928 0.50396,3.30756 -0.21672,4.83836c-1.05264,2.24288 -3.35056,3.6894 -5.85488,3.6894z" fill="#f1bc19"></path><path d="M84.89232,43.688c14.36716,0 28.28712,2.91024 40.2566,8.41596c1.27624,0.58652 2.24116,1.62712 2.7176,2.93088c0.46956,1.28484 0.40592,2.6746 -0.17716,3.91644c-0.85312,1.81804 -2.72276,2.9928 -4.7644,2.9928c-0.76712,0 -1.5136,-0.1634 -2.21536,-0.48676c-9.85732,-4.53048 -21.87324,-6.8284 -35.71236,-6.8284c-13.7944,0 -25.72432,2.2274 -35.4578,6.61856c-0.69488,0.31304 -1.43104,0.47128 -2.1844,0.47128c-2.0554,0 -3.93192,-1.19024 -4.77988,-3.03236c-0.57276,-1.24184 -0.62436,-2.6316 -0.1462,-3.913c0.48676,-1.30204 1.45856,-2.33576 2.73824,-2.91368c11.85424,-5.34576 25.59188,-8.17172 39.72512,-8.17172M84.89232,41.28c-14.4738,0 -28.55372,2.90164 -40.71756,8.385c-3.84592,1.7372 -5.54184,6.2264 -3.78916,10.03104c1.28484,2.78468 4.0592,4.43244 6.96772,4.43244c1.06296,0 2.14312,-0.22016 3.1734,-0.68456c10.1824,-4.59412 22.1708,-6.40528 34.4688,-6.40528c12.49236,0 24.42572,1.8834 34.70616,6.60824c1.04232,0.47988 2.1414,0.70692 3.22156,0.70692c2.88616,0 5.6502,-1.62196 6.94364,-4.3774c1.78364,-3.79432 0.1204,-8.29556 -3.7152,-10.05684c-12.28424,-5.65536 -26.55164,-8.63956 -41.25936,-8.63956z" fill="#472b29"></path></g><g fill="#472b29"><path d="M122.23868,56.05136c-0.08944,0 -0.1806,-0.01376 -0.27176,-0.043c-17.5784,-5.85832 -31.78216,-7.869 -46.04612,-6.50332c-0.47988,0.02408 -0.8944,-0.30272 -0.9374,-0.774c-0.04472,-0.473 0.301,-0.8944 0.774,-0.93912c14.51336,-1.39148 28.93556,0.645 46.75304,6.58416c0.45064,0.15136 0.69316,0.63812 0.54352,1.08876c-0.1204,0.35776 -0.4558,0.58652 -0.81528,0.58652z"></path></g><g fill="#472b29"><path d="M63.1842,51.57076c-0.39216,0 -0.74648,-0.27004 -0.83764,-0.66908c-0.10664,-0.4644 0.18404,-0.92364 0.64672,-1.03028c2.4424,-0.55728 4.87964,-1.02684 7.24464,-1.39148c0.47472,-0.0688 0.90816,0.25112 0.9804,0.71896c0.07224,0.46784 -0.2494,0.90816 -0.71896,0.9804c-2.32372,0.35776 -4.71968,0.81872 -7.12424,1.3674c-0.06192,0.0172 -0.12728,0.02408 -0.19092,0.02408z"></path></g><g fill="#472b29"><path d="M48.04132,56.05136c-0.35432,0 -0.68456,-0.21844 -0.81012,-0.57104c-0.15996,-0.4472 0.07224,-0.93912 0.52116,-1.09908c3.5862,-1.2814 7.09328,-2.39252 10.4232,-3.30068c0.46096,-0.11696 0.93224,0.14448 1.05608,0.60372c0.12384,0.45924 -0.14448,0.93052 -0.60372,1.05608c-3.28864,0.89612 -6.75272,1.99348 -10.29936,3.26112c-0.09288,0.03268 -0.19092,0.04988 -0.28724,0.04988z"></path></g><g fill="#472b29"><path d="M89.51912,118.32912c-0.0602,0 -0.1204,-0.01204 -0.17888,-0.03784c-0.215,-0.09804 -0.31132,-0.3526 -0.21328,-0.56932l3.7754,-8.30588c0.09976,-0.215 0.35432,-0.31304 0.56932,-0.21328c0.215,0.09804 0.31132,0.3526 0.21328,0.56932l-3.7754,8.30588c-0.07224,0.15652 -0.22704,0.25112 -0.39044,0.25112z"></path></g><g fill="#472b29"><path d="M85.14,127.96284c-0.0602,0 -0.1204,-0.01204 -0.17888,-0.03784c-0.215,-0.09804 -0.31132,-0.3526 -0.21328,-0.56932l2.4252,-5.33888c0.09976,-0.215 0.35432,-0.31476 0.56932,-0.21328c0.215,0.09804 0.31132,0.3526 0.21328,0.56932l-2.4252,5.33888c-0.07052,0.15824 -0.22704,0.25112 -0.39044,0.25112z"></path></g></g></g></svg>