<svg xmlns="http://www.w3.org/2000/svg" width="84" height="82" viewBox="0 0 84 82" fill="none">
  <path d="M10.5862 0C9.05096 0.000674683 7.49393 0.0396558 5.91418 0.11814C4.84409 0.171801 4.00024 1.19644 4.00008 2.44236V9.93076L1.51565 10.6532C0.624654 10.912 -0.000369844 11.8433 1.64193e-07 12.9116C1.64193e-07 37.4136 1.00002 63.0863 1.00002 74.5636C1.00062 75.8189 1.85707 76.8473 2.93562 76.8879L33.4461 78.033C34.0999 78.51 35.9137 79.7739 38.622 80.5957C41.6169 81.5045 45.6705 81.3672 48.712 78.0193C63.4871 76.9091 81.0018 76.8902 81.0018 76.8902C82.055 76.8904 82.9279 75.9405 82.9979 74.7182C84.0105 57.0503 82.9993 37.2144 81.9999 12.8003C81.9579 11.7744 81.3428 10.9019 80.4862 10.6533L77.8162 9.87624L76.9861 2.15383C76.8638 1.01335 76.044 0.14757 75.0563 0.115884C75.0563 0.115884 73.1773 0.0564169 70.2711 0.072714C67.3649 0.0890111 63.4311 0.180372 59.3255 0.488482C55.22 0.796591 50.9394 1.31642 47.2569 2.21745C44.1635 2.97434 41.5187 3.89549 39.5809 5.65494C30.9898 1.89374 21.3326 -0.00468788 10.5862 0ZM70.2594 4.72569C72.0631 4.71522 72.4505 4.73489 73.234 4.75068L74.0173 12.0369C74.0356 12.2011 74.069 12.3626 74.1169 12.5185L74.3161 23.8874L71.4488 22.2198C71.2999 22.1303 71.134 22.0858 70.9664 22.0903C70.5044 22.1026 70.1098 22.4815 70.0119 23.0068C69.9139 23.5322 70.1382 24.0672 70.5543 24.3009L74.363 26.5161L74.3864 27.9134H72.0016C71.6409 27.9074 71.3055 28.1278 71.1237 28.4902C70.9419 28.8525 70.9419 29.3007 71.1237 29.663C71.3055 30.0254 71.6409 30.2458 72.0016 30.2398H74.4274L74.7458 48.302L73.318 47.7476C73.2236 47.7095 73.1249 47.6881 73.025 47.684C72.5244 47.6613 72.0866 48.0729 72.0007 48.647C71.9148 49.2212 72.2074 49.7807 72.6852 49.956L74.7888 50.7716L74.9821 61.7997C73.6285 61.8135 67.7015 61.904 60.3353 62.9562C58.8098 63.1741 57.2587 63.4481 55.7141 63.7536L56.8958 61.0045C57.0607 60.6344 57.0428 60.1899 56.8487 59.8394C56.6547 59.4889 56.3143 59.2859 55.9563 59.3074C55.5912 59.3292 55.2655 59.5809 55.1067 59.964L53.2492 64.2853C52.6647 64.4234 52.0819 64.565 51.509 64.7192L51.9504 63.1788C52.0569 62.8243 52.0098 62.4317 51.8237 62.1247C51.6377 61.8177 51.3357 61.6341 51.0129 61.6316C50.5743 61.6276 50.1847 61.9565 50.0519 62.4427L49.2003 65.4144C48.8348 65.5327 48.4528 65.6357 48.0968 65.7621C45.7312 66.6015 43.6611 67.6577 41.9677 68.9701L41.0322 10.2488C41.2031 10.1301 41.3578 9.98227 41.4911 9.81036C41.9197 9.25352 43.1741 8.478 44.9268 7.77694L46.169 9.94666C46.3645 10.2997 46.7085 10.5028 47.0689 10.4779C47.4293 10.4531 47.7502 10.2042 47.9086 9.82677C48.0669 9.44933 48.038 9.00194 47.8331 8.65618L46.9307 7.0817C47.3023 6.97175 47.6837 6.86721 48.0792 6.77044C50.2191 6.24687 52.6805 5.85961 55.2083 5.56176L56.052 8.50623C56.165 8.9008 56.4504 9.19527 56.8007 9.27868C57.1509 9.36209 57.5128 9.22176 57.75 8.91057C57.9872 8.59938 58.0636 8.16463 57.9505 7.77011L57.2532 5.33912C57.6516 5.30079 58.0485 5.26617 58.4466 5.23233L59.0521 7.34298C59.1651 7.73756 59.4505 8.03202 59.8007 8.11544C60.151 8.19884 60.5129 8.05852 60.7501 7.74733C60.9873 7.43613 61.0637 7.00138 60.9506 6.60687L60.5111 5.07329C61.0754 5.03518 61.6398 4.99696 62.1928 4.9665L63.0385 8.45398C63.1884 9.07258 63.7411 9.43266 64.2729 9.25826C64.8047 9.08384 65.1143 8.44098 64.9643 7.82238L64.2495 4.87109C65.0529 4.83809 65.754 4.82067 66.5034 4.80066L67.0308 7.25666C67.1172 7.66016 67.3822 7.97936 67.7259 8.09395C68.0695 8.20854 68.4396 8.10113 68.6967 7.81219C68.9538 7.52324 69.0589 7.09666 68.9722 6.69322L68.5562 4.75977C69.1053 4.75175 69.766 4.72854 70.2594 4.72569ZM12.3792 4.73932C14.0517 4.76906 15.6852 4.86115 17.2973 4.9847L16.2933 6.15249C16.0321 6.44426 15.9268 6.87751 16.0182 7.28516C16.1096 7.6928 16.3832 8.01115 16.7337 8.11743C17.0841 8.2237 17.4566 8.10128 17.7074 7.79739L19.9125 5.23234C20.3004 5.27535 20.6924 5.31086 21.0766 5.35958L20.1059 7.61791C19.946 7.98968 19.9688 8.43242 20.1657 8.77932C20.3626 9.12623 20.7036 9.32458 21.0604 9.29965C21.4171 9.27473 21.7352 9.03031 21.895 8.65847L23.1763 5.67539C24.5001 5.88329 25.814 6.108 27.0924 6.38651L26.2935 7.31575C26.0323 7.60752 25.9271 8.04077 26.0184 8.44842C26.1098 8.85606 26.3835 9.17441 26.7339 9.28068C27.0843 9.38696 27.4568 9.26454 27.7076 8.96065L29.4401 6.94542C32.8029 7.81267 36.0032 8.93231 39.0341 10.317L39.995 70.7877C38.0826 68.6681 35.3846 67.15 32.3523 66.0415L33.8328 63.456C34.046 63.0953 34.0671 62.6258 33.8874 62.2412C33.7076 61.8565 33.3574 61.6219 32.9812 61.6339C32.6516 61.6445 32.3476 61.8434 32.1687 62.1655L30.321 65.3895C29.6388 65.1871 28.9508 64.9998 28.2506 64.8306L28.8952 63.3311C29.0601 62.9609 29.0421 62.5164 28.8481 62.1659C28.6541 61.8154 28.3136 61.6124 27.9557 61.6339C27.5906 61.6557 27.2648 61.9075 27.1061 62.2905L26.2096 64.3739C24.8474 64.1037 23.4817 63.8844 22.1333 63.7037L22.9497 60.8524C23.0563 60.4978 23.0091 60.1052 22.8231 59.7983C22.6371 59.4913 22.3351 59.3076 22.0122 59.3052C21.5736 59.3012 21.184 59.63 21.0512 60.1163L20.0942 63.4538C18.7236 63.3035 17.4851 63.2032 16.2992 63.1243L16.9496 60.8524C17.0561 60.4978 17.009 60.1053 16.823 59.7983C16.6369 59.4913 16.335 59.3076 16.0121 59.3052C15.5735 59.3012 15.1839 59.6301 15.0511 60.1163L14.223 63.0085C13.9052 62.9948 13.5451 62.9704 13.2503 62.9608L13.971 59.6028C14.0492 59.2595 13.9883 58.8935 13.8057 58.6089C13.6231 58.3243 13.3387 58.1523 13.0335 58.1419C12.5579 58.1252 12.1381 58.5005 12.0296 59.0394L11.1956 62.9244C10.1952 62.9174 9.37681 62.9217 8.98067 62.9312L8.7795 50.9398L11.3167 49.956C11.7813 49.7851 12.0724 49.2494 12.0058 48.6878C11.9392 48.1262 11.5342 47.7022 11.0471 47.6841C10.9237 47.679 10.8005 47.7006 10.6838 47.7477L8.73848 48.502L8.71895 47.4069L12.4476 45.2394C12.8687 45.0025 13.0923 44.4577 12.9861 43.9278C12.8798 43.3979 12.4719 43.0245 12.0042 43.0288C11.8471 43.0302 11.6926 43.0745 11.553 43.1583L8.67599 44.8328L8.56466 38.21L13.3714 35.9721C13.8259 35.7693 14.0889 35.2154 13.9944 34.6599C13.8999 34.1044 13.4752 33.7088 12.9886 33.7228C12.865 33.727 12.7431 33.7578 12.6292 33.8137L8.5217 35.7245L8.00021 4.76665C9.48241 4.72327 10.9415 4.71378 12.3792 4.73932ZM6.15638 14.0998L7.00015 64.1171C7.00578 64.4277 7.11794 64.7227 7.31164 64.9365C7.50535 65.1503 7.76451 65.2651 8.03142 65.2554C8.03142 65.2554 14.2594 65.0355 21.3227 65.9302C25.2261 66.4246 29.3428 67.3368 32.7781 68.7088C29.5839 68.2023 25.8714 67.8914 22.2856 67.7068C14.8339 67.3234 7.9826 67.4638 7.9826 67.4638C7.62528 67.471 7.29842 67.6994 7.12518 68.063C6.95194 68.4266 6.95864 68.8701 7.14276 69.2264C7.32688 69.5827 7.66043 69.7976 8.01776 69.7902C8.01776 69.7902 14.8217 69.6515 22.1978 70.0311C25.8858 70.2209 29.7166 70.5425 32.8816 71.0671C36.0244 71.588 38.5493 72.4451 39.3603 73.1459C39.4702 73.2476 39.5973 73.3211 39.7333 73.3618C39.7565 73.3696 39.78 73.3764 39.8036 73.3822C39.9627 73.4217 40.1276 73.4155 40.2841 73.3641C40.4661 73.3277 58.2092 69.7903 75.0017 69.7903C75.3623 69.7962 75.6978 69.5758 75.8796 69.2134C76.0614 68.8511 76.0614 68.4029 75.8796 68.0406C75.6978 67.6782 75.3623 67.4578 75.0017 67.4638C60.9396 67.4638 48.0841 69.6292 43.5342 70.465C44.9582 69.5257 46.7104 68.6855 48.6808 67.9863C52.2743 66.7111 56.5244 65.8437 60.5795 65.2645C68.6896 64.1061 76.0036 64.0945 76.0036 64.0945C76.2723 64.0939 76.5294 63.9676 76.7172 63.7441C76.9049 63.5206 77.0075 63.2186 77.0017 62.9062L76.7888 50.733C77.0838 50.2962 77.0723 49.6778 76.7615 49.2562L76.1462 14.1862L78.0682 14.7451C79.0011 37.3525 79.8479 55.9772 79.0701 72.2622C76.3089 72.2701 61.6363 72.3373 47.8683 73.405C47.3221 73.4469 46.8145 73.7475 46.4639 74.2365C44.5516 76.9059 42.1212 76.8487 39.6298 76.0927C37.1384 75.3367 35.1102 73.7912 35.1102 73.7912C34.8 73.5501 34.4381 73.4148 34.0652 73.4004L4.95716 72.3076C4.88017 60.2508 4.07169 37.4485 4.0255 14.7201L6.15638 14.0998ZM27.1881 33.741C27.0722 33.7605 26.9577 33.8077 26.8502 33.8818C26.4302 34.1796 26.3014 34.8189 26.5514 35.3086C26.8114 35.7983 27.3599 35.9529 27.7799 35.6562C28.1999 35.3584 28.3407 34.7192 28.0807 34.2294C27.8932 33.8613 27.5359 33.6824 27.1881 33.741ZM26.7643 41.652C26.6496 41.6714 26.5353 41.7164 26.4303 41.7905C26.0103 42.0883 25.8714 42.7264 26.1314 43.2173C26.3914 43.7082 26.93 43.8638 27.36 43.5672C27.78 43.2694 27.9108 42.6301 27.6608 42.1404C27.4658 41.7731 27.1083 41.5936 26.7643 41.652ZM50.7648 44.2102C50.6501 44.2297 50.5358 44.2769 50.4308 44.351C50.0108 44.6488 49.872 45.2881 50.132 45.7778C50.392 46.2676 50.9305 46.4221 51.3605 46.1254C51.7805 45.8277 51.9113 45.1884 51.6613 44.6987C51.4663 44.3305 51.1089 44.1516 50.7648 44.2102Z" fill="#FFD803"/>
</svg>
