<svg xmlns="http://www.w3.org/2000/svg" width="100" height="100" viewBox="0 0 100 100" fill="none">
<path d="M51.0616 8.4668C48.5619 8.4668 46.0619 8.69216 43.5926 9.14064C42.673 9.30783 41.9918 10.0896 41.952 11.0235L41.5535 20.387C38.7413 21.2824 36.0845 22.5614 33.6315 24.2015L26.0649 18.676C25.3101 18.1239 24.2734 18.1685 23.5688 18.7834C19.7877 22.0855 16.6339 26.0409 14.2561 30.4614C13.8132 31.2848 13.9997 32.3051 14.7053 32.9185L21.7777 39.0671C20.7241 41.8244 20.0678 44.6985 19.8206 47.6395L10.7814 50.1103C9.8793 50.3569 9.2685 51.1956 9.31065 52.1299C9.5354 57.1438 10.6615 62.0768 12.6349 66.6927C13.0029 67.5519 13.9169 68.0418 14.8362 67.8724L24.0532 66.1771C25.552 68.7194 27.3905 71.0249 29.5357 73.0522L25.8305 81.6598C25.461 82.5182 25.7351 83.5181 26.4907 84.0681C30.5513 87.0195 35.1115 89.2158 39.95 90.5506C40.851 90.799 41.8039 90.3903 42.245 89.5663L46.6669 81.3043C49.5892 81.7175 52.5379 81.7177 55.4601 81.3043L59.8801 89.5663C60.3214 90.3911 61.2754 90.8 62.1771 90.5507C67.0155 89.2158 71.5738 87.0195 75.6344 84.0681C76.3907 83.5187 76.6657 82.5187 76.2965 81.6598L72.5913 73.0522C74.7366 71.0249 76.5746 68.7192 78.0739 66.1771L87.2909 67.8724C88.2102 68.0418 89.1242 67.552 89.4921 66.6927C91.4656 62.0777 92.5917 57.1448 92.8164 52.1299C92.8586 51.1956 92.2477 50.3569 91.3457 50.1103L82.3025 47.6395C82.0549 44.6982 81.3986 41.8244 80.3454 39.0671L87.4179 32.9185C88.1234 32.3051 88.31 31.2848 87.8671 30.4614C85.4892 26.0406 82.3341 22.0853 78.5544 18.7834C77.8498 18.1685 76.8131 18.1239 76.0582 18.676L68.4917 24.2015C66.038 22.5612 63.3814 21.2827 60.5696 20.387L60.1712 11.0235C60.1314 10.0896 59.4501 9.30784 58.5305 9.14065C56.0613 8.69218 53.5612 8.4668 51.0616 8.4668ZM51.0616 12.4669C52.7971 12.4669 54.5241 12.6966 56.2472 12.9356L56.6281 21.8753C56.6654 22.7496 57.2668 23.4981 58.1125 23.723C58.9581 23.9478 59.7909 24.2127 60.6086 24.516L59.1223 26.9926C58.9329 27.2992 58.923 27.6839 59.0965 27.9998C59.27 28.3156 59.6001 28.5137 59.9604 28.5183C60.3207 28.5229 60.6557 28.3333 60.8372 28.0219L62.4739 25.2953C64.2128 26.09 65.8711 27.0582 67.4135 28.2016C68.1165 28.7235 69.0773 28.7274 69.7846 28.2114L77.0094 22.9339C79.533 25.3312 81.7029 28.0496 83.4783 31.0435L76.7242 36.9147C76.0638 37.4889 75.8533 38.4258 76.2047 39.2273C77.1888 41.4706 77.8595 43.8334 78.2164 46.2489L74.3648 47.4403C74.0163 47.5401 73.7491 47.8206 73.6663 48.1735C73.5835 48.5264 73.6982 48.8964 73.966 49.1407C74.2338 49.385 74.6128 49.4653 74.9566 49.3505L78.4411 48.2724C78.4658 48.6116 78.4895 48.9515 78.5016 49.2919C78.5333 50.1666 79.1299 50.9191 79.9743 51.1494L88.6093 53.5108C88.3084 56.978 87.534 60.3706 86.3006 63.6243L77.4997 62.0051C76.6388 61.8463 75.7746 62.2657 75.3668 63.0403C73.7504 66.1128 71.5673 68.8512 68.9311 71.1108C68.267 71.6804 68.0502 72.6157 68.3959 73.4194L71.9312 81.6403C69.0331 83.5669 65.8986 85.0757 62.5853 86.1404L58.6477 78.7809L61.7903 75.1714C62.0526 74.8776 62.1179 74.4572 61.9573 74.0976C61.7967 73.738 61.44 73.5062 61.0462 73.5054C60.752 73.5052 60.4727 73.6345 60.2825 73.8589L57.2727 77.3141C56.9368 77.193 56.5746 77.164 56.2238 77.2301C55.7298 77.3246 55.2328 77.4012 54.7355 77.4684L55.0695 74.4019C55.1048 74.1164 55.0156 73.8296 54.8245 73.6146C54.6334 73.3996 54.359 73.2772 54.0714 73.2788C53.5575 73.2816 53.1294 73.6734 53.0811 74.1851L52.7022 77.6656C51.6757 77.727 50.6469 77.7333 49.6201 77.6793L49.2295 73.8179C49.1834 73.2949 48.7407 72.8966 48.2158 72.9058C47.9335 72.9105 47.6663 73.0344 47.4803 73.2469C47.2942 73.4593 47.2067 73.7405 47.2392 74.021L47.5908 77.4938C47.026 77.4218 46.4619 77.3374 45.9013 77.2301C45.0417 77.0661 44.1753 77.4799 43.7626 78.2516L39.5398 86.1404C36.2266 85.0756 33.0918 83.567 30.1939 81.6403L31.6139 78.3395L35.6472 79.3922C35.9945 79.487 36.366 79.3877 36.6198 79.1322C36.8736 78.8768 36.9705 78.5047 36.8735 78.1579C36.7765 77.8112 36.5006 77.5433 36.1511 77.4566L32.4127 76.482L33.3327 74.3452L38.114 73.6148C38.6323 73.5411 39.0062 73.0803 38.9713 72.558C38.9364 72.0356 38.5047 71.6286 37.9812 71.6245C37.9243 71.6242 37.8674 71.6288 37.8113 71.6381L33.8561 72.2417C33.7692 71.8013 33.5366 71.403 33.1959 71.1108C30.5597 68.8512 28.3755 66.1125 26.7602 63.0403C26.3524 62.2657 25.4883 61.8463 24.6274 62.0051L22.184 62.4544L20.9691 58.2589C20.8506 57.8255 20.4575 57.5243 20.0081 57.5226C19.6906 57.5213 19.3914 57.6709 19.2018 57.9256C19.0122 58.1803 18.9548 58.5099 19.0472 58.8137L20.2054 62.8176L15.8264 63.6243C14.5928 60.3693 13.8185 56.9761 13.5178 53.5089L22.1488 51.1494C22.9932 50.9192 23.5899 50.1666 23.6215 49.292C23.6338 48.9425 23.6564 48.5933 23.6821 48.2451L27.104 48.6513C27.6525 48.7166 28.1501 48.3248 28.2154 47.7763C28.2806 47.2278 27.8889 46.7302 27.3403 46.665L23.9047 46.2568C23.9908 45.6729 24.0957 45.0912 24.2192 44.5145L30.2935 44.8095C30.8453 44.8359 31.314 44.41 31.3404 43.8583C31.3669 43.3065 30.941 42.8378 30.3892 42.8114L24.7192 42.536C25.0489 41.4119 25.4457 40.3064 25.9184 39.2293C26.2708 38.4272 26.0602 37.4893 25.3989 36.9148L18.6448 31.0435C20.4201 28.0496 22.5898 25.3311 25.1137 22.934L32.3385 28.2114C33.0458 28.7275 34.0066 28.7235 34.7097 28.2017C37.4988 26.1341 40.6534 24.6141 44.0087 23.7231C44.8552 23.4989 45.4574 22.7502 45.495 21.8754L45.874 12.9357C47.5977 12.6965 49.3254 12.4669 51.0616 12.4669ZM49.0869 28.0688C48.6858 28.0792 48.3298 28.3284 48.1826 28.7016L46.745 32.19C46.0118 32.3484 45.3099 32.5649 44.6239 32.8072L43.8798 30.9439C43.7315 30.5591 43.3624 30.3047 42.95 30.3032C42.6154 30.302 42.3022 30.4682 42.1158 30.7461C41.9293 31.0241 41.8942 31.3768 42.0223 31.6861L42.7801 33.5865C41.6796 34.1293 40.6605 34.7839 39.7273 35.5358L38.364 34.6959C38.1938 34.5882 37.995 34.5344 37.7937 34.5416C37.3508 34.5573 36.9711 34.8625 36.8606 35.2916C36.7501 35.7207 36.935 36.1714 37.3152 36.3991L38.1941 36.9401C38.0121 37.1293 37.8179 37.307 37.6452 37.5046C34.5693 41.023 32.9479 45.7732 32.9479 50.8584C32.9479 56.0308 34.9912 60.5161 38.4245 63.6008C38.4575 63.6305 38.4948 63.6555 38.5281 63.6848L35.985 65.0481C35.498 65.3092 35.3148 65.9156 35.5759 66.4026C35.8369 66.8897 36.4433 67.0729 36.9304 66.8118L40.2742 65.0208C41.1174 65.5911 42.0099 66.1014 42.9598 66.5306L41.6649 68.4388C41.3542 68.8962 41.4731 69.5188 41.9305 69.8295C42.3879 70.1402 43.0105 70.0212 43.3212 69.5639L44.8778 67.2689C46.1598 67.6924 47.5137 67.9906 48.9228 68.1693L49.1631 69.4057C49.2259 69.7618 49.476 70.0563 49.8173 70.1759C50.1586 70.2955 50.5378 70.2215 50.8092 69.9824C51.0805 69.7434 51.2017 69.3765 51.126 69.0228L50.9932 68.3392C51.3117 68.3515 51.6254 68.3763 51.9483 68.3763C53.7031 68.3763 55.3473 68.1484 56.8859 67.7513L58.0168 69.7982C58.1834 70.1224 58.5131 70.3303 58.8775 70.3408C59.2418 70.3513 59.583 70.1628 59.768 69.8488C59.953 69.5348 59.9526 69.145 59.7668 68.8314L58.8274 67.1302C61.1691 66.2201 63.1854 64.8484 64.7728 63.0735C64.8257 63.0144 64.8693 62.9478 64.9212 62.8879L66.8666 63.8137C67.1911 63.9831 67.5822 63.9617 67.8863 63.7579C68.1903 63.554 68.3588 63.2004 68.3254 62.8358C68.2919 62.4713 68.062 62.1542 67.726 62.009L66.1478 61.257C68.2007 58.158 69.2417 54.3043 69.2417 50.1123C69.2417 47.832 68.8405 45.6711 68.1303 43.6727L70.0815 43.9891C70.6268 44.0775 71.1406 43.7072 71.229 43.1619C71.3175 42.6166 70.9471 42.1029 70.4018 42.0144L67.2084 41.4968C66.583 40.2725 65.8206 39.1378 64.9408 38.1022L66.8432 37.6745C67.3558 37.566 67.6977 37.0801 67.6269 36.5609C67.5561 36.0417 67.0966 35.6652 66.5736 35.6979C66.517 35.7016 66.4608 35.7101 66.4057 35.7233L63.2962 36.4225C62.3935 35.6118 61.4046 34.8928 60.3352 34.276L62.2649 32.8326C62.613 32.5793 62.7599 32.1316 62.6296 31.7213C62.4994 31.311 62.1212 31.0301 61.6907 31.024C61.4657 31.0209 61.2461 31.0938 61.0677 31.231L58.3391 33.2721C57.2383 32.8085 56.0725 32.448 54.8507 32.1959L55.5265 31.5162C55.8214 31.228 55.9092 30.7883 55.7476 30.409C55.586 30.0296 55.2082 29.7883 54.796 29.8013C54.5359 29.8095 54.2893 29.9188 54.1085 30.106L52.3741 31.8502C51.832 31.8076 51.2868 31.772 50.7276 31.772C50.1576 31.772 49.5999 31.8007 49.0498 31.8482L50.0323 29.4634C50.1669 29.1501 50.1326 28.7897 49.9412 28.5074C49.7498 28.2251 49.4278 28.0598 49.0869 28.0688ZM27.4204 30.3618C27.2655 30.3889 27.1134 30.4471 26.9731 30.5376C26.4121 30.8996 26.2517 31.6505 26.6137 32.2115C26.9757 32.7725 27.7246 32.9329 28.2857 32.5708C28.8467 32.2088 29.009 31.459 28.647 30.897C28.3755 30.4762 27.885 30.2807 27.4204 30.3618ZM31.526 35.4889C31.3711 35.5159 31.2189 35.5742 31.0787 35.6647C30.5167 36.0267 30.3573 36.7775 30.7193 37.3385C31.0813 37.8995 31.8302 38.0599 32.3912 37.6979C32.9522 37.3359 33.1136 36.5851 32.7526 36.024C32.4811 35.6033 31.9905 35.4077 31.526 35.4889ZM50.7276 35.7721C59.6067 35.7721 65.2415 41.7481 65.2415 50.1122C65.2415 54.3816 63.9984 57.9366 61.7903 60.4054C59.5822 62.8743 56.393 64.3762 51.9483 64.3762C47.453 64.3762 43.7074 62.9683 41.0984 60.6242C38.4894 58.2801 36.948 55.0051 36.948 50.8584C36.948 46.6243 38.3006 42.8328 40.657 40.1374C43.0134 37.442 46.3387 35.7721 50.7276 35.7721ZM73.7847 54.6241C73.6298 54.6511 73.4796 54.7094 73.3394 54.7999C72.7774 55.1619 72.616 55.9127 72.9781 56.4737C73.3401 57.0357 74.0889 57.1951 74.65 56.8331C75.211 56.4711 75.3733 55.7232 75.0113 55.1612C74.7398 54.7397 74.2493 54.543 73.7847 54.6241Z" fill="#FFD803"/>
</svg>
