<svg xmlns="http://www.w3.org/2000/svg" width="100" height="100" viewBox="0 0 100 100" fill="none">
  <path d="M54.4587 11.9556C52.9572 11.9623 51.4274 12.0379 49.8726 12.186C38.6929 13.2506 27.8932 16.1205 19.9599 21.237C12.0265 26.3535 6.95331 34.0913 8.19007 43.9035C10.1038 59.0878 23.0994 71.7476 42.1147 74.5136C44.2232 76.6678 45.0566 78.6781 44.978 80.8633C44.8948 83.1751 43.766 85.8465 41.6146 88.7678C41.0859 89.4876 41.0985 90.4707 41.6454 91.1768C42.1923 91.8829 43.141 92.1409 43.9702 91.8089C48.1907 90.1104 51.9051 87.9502 54.4997 84.8166C56.6974 82.1623 57.906 78.7541 57.9295 74.7812C76.1595 75.2816 90.7748 60.3579 91.9458 43.7961C93.0423 28.2975 79.0545 13.9053 58.8748 12.1372C57.4334 12.0109 55.9602 11.9488 54.4587 11.9556ZM54.4743 15.9517C54.6434 15.9508 54.8081 15.9587 54.9763 15.9595L53.9645 17.776C53.774 18.0891 53.77 18.4812 53.9541 18.7982C54.1381 19.1151 54.4807 19.3059 54.8471 19.2956C55.2134 19.2853 55.5447 19.0754 55.7107 18.7487L57.2263 16.0299C57.6576 16.0538 58.091 16.0738 58.5154 16.1099C59.4283 16.1876 60.3207 16.3 61.201 16.4322L58.6697 20.737C58.4721 21.0455 58.459 21.4373 58.6355 21.7583C58.812 22.0793 59.1499 22.2782 59.5162 22.2766C59.8826 22.275 60.2187 22.0732 60.3924 21.7507L63.3046 16.8014C64.0789 16.9596 64.8368 17.1413 65.582 17.3404L64.6308 18.7018C64.3142 19.1549 64.4248 19.7788 64.8779 20.0954C65.3309 20.412 65.9548 20.3014 66.2714 19.8483L67.6035 17.9401C80.084 22.029 87.9075 31.859 87.9965 41.9543L84.4691 41.8683C83.9169 41.855 83.4584 42.2917 83.4449 42.8439C83.4314 43.3961 83.8681 43.8548 84.4203 43.8684L87.9125 43.9523C87.837 44.8152 87.7233 45.6742 87.5649 46.5266L83.0121 47.0305C82.6568 47.0699 82.3495 47.2958 82.206 47.6231C82.0625 47.9505 82.1046 48.3295 82.3164 48.6175C82.5282 48.9054 82.8775 49.0584 83.2328 49.0189L87.0961 48.5911C85.4091 54.9437 81.4942 60.7836 76.1642 64.904L74.1017 61.5738C73.927 61.2817 73.6157 61.0985 73.2755 61.0875C72.9046 61.076 72.5578 61.2709 72.3747 61.5937C72.1916 61.9165 72.2023 62.3141 72.4024 62.6266L74.5431 66.0837C73.9367 66.4914 73.3105 66.8692 72.6739 67.2322L69.3907 61.5543C69.2066 61.2264 68.8542 61.0295 68.4785 61.0445C68.1262 61.0588 67.8074 61.2576 67.6395 61.5677C67.4716 61.8778 67.4795 62.2534 67.6602 62.5563L70.9044 68.1697C66.4762 70.3061 61.4388 71.3477 56.0993 70.8279C55.5014 70.7701 54.9091 70.9841 54.4861 71.4108C54.0632 71.8375 53.8545 72.4317 53.9177 73.0292C54.3488 77.0888 53.3793 79.8964 51.4176 82.2657C50.5551 83.3074 49.3895 84.2255 48.1167 85.0978C48.5907 83.7471 48.9265 82.387 48.9762 81.0079C49.1007 77.547 47.6242 74.1432 44.6069 71.2557C44.2979 70.9599 43.9022 70.771 43.478 70.7166C42.2582 70.5606 41.0713 70.3594 39.9115 70.1209L40.8783 67.1951C40.9835 66.8901 40.9351 66.5531 40.7484 66.2901C40.5616 66.027 40.2595 65.8702 39.9369 65.8689C39.4985 65.8666 39.1098 66.15 38.9779 66.5681L37.9564 69.6697C36.8864 69.4 35.844 69.0956 34.8313 68.7576C34.8354 68.746 34.8393 68.7342 34.843 68.7224L36.1067 64.8942C36.2119 64.5893 36.1635 64.2523 35.9768 63.9892C35.7901 63.7262 35.4879 63.5693 35.1653 63.568C34.7264 63.566 34.3375 63.8504 34.2063 64.2692L32.9465 68.0818C31.8977 67.6743 30.8805 67.2305 29.9015 66.7517L31.6359 61.4957C31.7411 61.1908 31.6927 60.8538 31.506 60.5907C31.3193 60.3277 31.0171 60.1708 30.6945 60.1695C30.2569 60.1681 29.8691 60.4514 29.7375 60.8688L28.1066 65.8083C26.732 65.0416 25.4379 64.2038 24.2237 63.3024L26.9444 59.484C27.1671 59.1806 27.2006 58.7779 27.0311 58.4419C26.8617 58.1059 26.518 57.8935 26.1417 57.8921C25.8113 57.8904 25.5013 58.0519 25.3136 58.3238L22.6475 62.068C21.8419 61.3926 21.0831 60.6833 20.3623 59.9508L23.6045 53.4662C23.7694 53.148 23.7515 52.7659 23.5575 52.4646C23.3634 52.1632 23.023 51.9888 22.6651 52.0072C22.3 52.026 21.9742 52.2424 21.8154 52.5717L18.9091 58.3804C17.8242 57.1161 16.8622 55.7807 16.0204 54.392C16.1332 54.294 16.2227 54.1718 16.2821 54.0346L19.0615 47.9193C19.2063 47.6114 19.1847 47.2511 19.0042 46.9628C18.8237 46.6745 18.509 46.4976 18.1689 46.4934C17.7673 46.4889 17.4019 46.725 17.2411 47.0931L14.8719 52.3041C14.0256 50.6058 13.3494 48.8404 12.866 47.0227L14.9305 44.6028C15.1908 44.3065 15.2527 43.885 15.0886 43.5265C14.9245 43.1679 14.565 42.9393 14.1707 42.9426C13.876 42.9449 13.5972 43.0771 13.409 43.3039L12.3328 44.5657C12.2673 44.1801 12.208 43.7924 12.159 43.4035C11.1167 35.1343 15.0262 29.1786 22.1279 24.5984C22.1398 24.5908 22.1532 24.5846 22.165 24.5769L24.5206 28.0399C24.8312 28.4967 25.4534 28.6152 25.9102 28.3046C26.3671 27.9939 26.4856 27.3717 26.1749 26.9149L23.8838 23.5457C30.8399 19.603 40.2817 17.135 50.1188 16.1842L49.1305 18.0319C48.958 18.3473 48.9682 18.731 49.157 19.0369C49.3458 19.3428 49.6842 19.5239 50.0435 19.5111C50.4028 19.4984 50.7276 19.2938 50.8942 18.9753L52.4821 16.0084C53.1533 15.9758 53.8168 15.9555 54.4743 15.9517ZM74.5158 26.7293C74.0719 26.7113 73.6406 26.9549 73.4396 27.3817C73.1706 27.9507 73.4135 28.6313 73.9826 28.8993C74.5516 29.1673 75.2312 28.9244 75.5002 28.3544C75.7682 27.7853 75.5232 27.1077 74.9552 26.8387C74.813 26.7717 74.6637 26.7353 74.5158 26.7293ZM67.5957 29.0887C67.1518 29.0707 66.7205 29.3124 66.5195 29.7391C66.2505 30.3082 66.4935 30.9888 67.0625 31.2568C67.6315 31.5248 68.3111 31.2828 68.5801 30.7138C68.8481 30.1448 68.6032 29.4642 68.0352 29.1962C67.8929 29.1292 67.7436 29.0948 67.5957 29.0887ZM76.4865 34.9307C76.0426 34.9126 75.6094 35.1543 75.4084 35.5811C75.1394 36.1501 75.3843 36.8307 75.9533 37.0987C76.5223 37.3667 77.2029 37.1247 77.4709 36.5557C77.7389 35.9867 77.494 35.3061 76.926 35.0381C76.7837 34.9711 76.6345 34.9367 76.4865 34.9307ZM68.0312 40.1886C66.7515 40.1886 65.6659 40.6816 64.9589 41.4484C64.2519 42.2152 63.914 43.2111 63.914 44.1926C63.914 45.1741 64.2519 46.168 64.9589 46.9349C65.6659 47.7017 66.7515 48.1966 68.0312 48.1966C69.311 48.1966 70.3966 47.7017 71.1036 46.9349C71.8106 46.168 72.1466 45.1741 72.1466 44.1926C72.1466 43.2111 71.8106 42.2152 71.1036 41.4484C70.3966 40.6816 69.311 40.1886 68.0312 40.1886ZM50.7125 40.2277C49.4328 40.2277 48.3472 40.7206 47.6402 41.4875C46.9331 42.2543 46.5952 43.2501 46.5952 44.2317C46.5952 45.2132 46.9331 46.2071 47.6402 46.9739C48.3472 47.7407 49.4328 48.2357 50.7125 48.2357C51.9922 48.2357 53.0759 47.7407 53.7829 46.9739C54.4899 46.2071 54.8278 45.2132 54.8278 44.2317C54.8278 43.2501 54.4899 42.2543 53.7829 41.4875C53.0759 40.7206 51.9922 40.2277 50.7125 40.2277ZM33.759 40.4503C32.4794 40.4503 31.3937 40.9435 30.6867 41.7101C29.9796 42.4767 29.6437 43.471 29.6437 44.4524C29.6437 45.4337 29.9796 46.43 30.6867 47.1966C31.3937 47.9632 32.4794 48.4564 33.759 48.4564C35.0386 48.4564 36.1243 47.9632 36.8313 47.1966C37.5384 46.43 37.8743 45.4337 37.8743 44.4524C37.8743 43.471 37.5384 42.4767 36.8313 41.7101C36.1243 40.9435 35.0386 40.4503 33.759 40.4503ZM68.0312 42.1886C68.8289 42.1886 69.3012 42.4442 69.6328 42.8039C69.9645 43.1636 70.1465 43.6721 70.1465 44.1926C70.1465 44.7131 69.9645 45.2196 69.6328 45.5793C69.3012 45.9391 68.8289 46.1965 68.0312 46.1965C67.2336 46.1965 66.7613 45.9391 66.4297 45.5793C66.098 45.2196 65.914 44.7131 65.914 44.1926C65.914 43.6721 66.098 43.1636 66.4297 42.8039C66.7613 42.4442 67.2336 42.1886 68.0312 42.1886ZM50.7125 42.2277C51.5102 42.2277 51.9824 42.4832 52.3141 42.8429C52.6458 43.2027 52.8278 43.7112 52.8278 44.2317C52.8278 44.7522 52.6458 45.2587 52.3141 45.6184C51.9824 45.9781 51.5102 46.2356 50.7125 46.2356C49.9148 46.2356 49.4406 45.9781 49.109 45.6184C48.7773 45.2587 48.5953 44.7522 48.5953 44.2317C48.5953 43.7112 48.7773 43.2027 49.109 42.8429C49.4406 42.4832 49.9148 42.2277 50.7125 42.2277ZM33.759 42.4504C34.5567 42.4504 35.029 42.7061 35.3606 43.0656C35.6922 43.4252 35.8743 43.9322 35.8743 44.4524C35.8743 44.9725 35.6922 45.4796 35.3606 45.8391C35.029 46.1987 34.5567 46.4563 33.759 46.4563C32.9613 46.4563 32.489 46.1987 32.1574 45.8391C31.8258 45.4796 31.6437 44.9725 31.6437 44.4524C31.6437 43.9322 31.8258 43.4252 32.1574 43.0656C32.489 42.7061 32.9613 42.4504 33.759 42.4504Z" fill="#FFD803"/>
</svg>
