<svg xmlns="http://www.w3.org/2000/svg" width="91" height="100" viewBox="0 0 91 100" fill="none">
  <path d="M47.8776 12.9669C36.3414 12.975 25.1503 14.0504 14.2089 15.8556C13.3066 16.004 12.6199 16.7454 12.5409 17.6564C10.2596 44.0189 10.1622 67.0417 12.3768 86.5935C12.4875 87.5661 13.2859 88.3158 14.2636 88.365C38.7535 89.602 63.9438 89.4291 90.0465 87.4041C91.0184 87.328 91.794 86.5624 91.8825 85.5915C92.7349 76.2987 93.1582 62.1849 92.195 31.9048C92.1748 31.2597 91.8446 30.6641 91.3083 30.3051L67.214 14.2071C66.9418 14.0256 66.6293 13.9136 66.3038 13.8809C61.7614 13.4226 57.2757 13.1451 52.8426 13.0293C51.1802 12.9859 49.5256 12.9657 47.8776 12.9669ZM47.3522 16.9767L46.9245 19.4807C46.8317 20.0254 47.1981 20.5422 47.7429 20.635C48.2876 20.7278 48.8044 20.3614 48.8972 19.8166L49.3796 16.9845C50.4976 16.9924 51.6145 16.9981 52.7391 17.0275C56.9222 17.1368 61.1546 17.41 65.4347 17.8302L67.4738 19.1916L67.9289 49.3856C67.4081 49.4168 66.8428 49.4393 66.3175 49.4696L65.3722 40.8835C65.3221 40.3613 64.877 39.9666 64.3526 39.9792C64.0704 39.9864 63.8045 40.1126 63.6203 40.3265C63.4362 40.5404 63.351 40.8221 63.3858 41.1022L64.3194 49.5751C63.8762 49.5993 63.425 49.622 62.9776 49.6454L62.8408 46.6551C62.8323 46.3849 62.7148 46.1296 62.515 45.9474C62.3152 45.7653 62.0501 45.6718 61.7803 45.6883C61.2291 45.7219 60.8094 46.1957 60.8427 46.7469L60.9795 49.7509C52.7863 50.1495 43.7621 50.3987 32.596 50.2665L32.2972 47.2C32.2541 46.677 31.8141 46.2762 31.2894 46.2821C31.0067 46.2853 30.7387 46.408 30.5515 46.6197C30.3643 46.8315 30.2755 47.1125 30.3069 47.3934L30.5862 50.245C30.0997 50.2374 29.5691 50.2209 29.0745 50.2118L28.3342 43.4343C28.2851 42.9114 27.8398 42.5156 27.3147 42.5281C27.0322 42.5348 26.7657 42.6607 26.5811 42.8747C26.3965 43.0886 26.3111 43.3707 26.3459 43.6511L27.0568 50.1689C26.033 50.1466 25.0555 50.133 23.9962 50.1044C23.2927 42.9999 23.0464 32.9275 23.4747 18.592C28.8292 17.9124 34.2386 17.4218 39.7212 17.1701L37.9536 25.3441C37.8737 25.6951 37.9887 26.0619 38.2546 26.3046C38.5204 26.5472 38.8962 26.6283 39.2384 26.5169C39.5807 26.4054 39.8367 26.1187 39.9087 25.766L41.7818 17.092C42.4211 17.0697 43.0585 17.0393 43.6998 17.0236L42.4478 24.2523C42.3833 24.6058 42.5135 24.9668 42.7888 25.1979C43.064 25.4289 43.4421 25.4945 43.7791 25.3696C44.1161 25.2448 44.3603 24.9487 44.4186 24.5941L45.735 16.9982C46.2739 16.9911 46.8118 16.979 47.3522 16.9767ZM21.4649 18.8498C21.0317 33.5686 21.2825 43.9745 22.0548 51.2079C22.1084 51.7054 22.5214 52.0868 23.0216 52.1005C39.1607 52.5639 51.0484 52.2656 61.6279 51.7372C61.9174 51.8641 62.2498 51.8468 62.5244 51.6904C63.294 51.6507 64.0528 51.6093 64.8096 51.5673C64.8103 51.568 64.8109 51.5686 64.8116 51.5693C65.2175 51.915 65.8233 51.8815 66.1886 51.4931C67.1126 51.44 68.0926 51.3962 69.0031 51.3408C69.5369 51.3084 69.9508 50.8618 69.9425 50.3271L69.4953 20.5432L77.9525 26.1937L75.8333 28.9047C75.6131 29.1863 75.5598 29.5639 75.6936 29.8954C75.8273 30.2269 76.1278 30.4618 76.4818 30.5117C76.8357 30.5616 77.1894 30.4188 77.4095 30.1372L79.6205 27.307L81.1674 28.3402L77.6673 33.0786C77.4501 33.3659 77.4041 33.7477 77.5468 34.0783C77.6896 34.4089 77.9991 34.6373 78.3571 34.6762C78.7151 34.715 79.0664 34.5584 79.2767 34.2662L82.8315 29.4536L88.2125 33.0474C88.3 35.8747 88.366 38.4571 88.4293 41.0007L83.562 42.5261C83.2202 42.6325 82.9613 42.9134 82.8832 43.2628C82.805 43.6121 82.9195 43.9765 83.1835 44.2184C83.4474 44.4602 83.8204 44.5426 84.1616 44.4344L88.484 43.0789C88.5016 43.8429 88.5095 44.4906 88.525 45.2293L80.6791 48.4735C80.338 48.6024 80.0941 48.9067 80.0425 49.2676C79.9909 49.6286 80.1399 49.989 80.4313 50.2083C80.7227 50.4275 81.1103 50.4708 81.4428 50.3212L88.566 47.3758C88.5867 48.4789 88.6146 49.6523 88.6305 50.6982L83.0171 51.9658C82.6647 52.0406 82.3797 52.2991 82.2712 52.6426C82.1626 52.9861 82.2471 53.3615 82.4925 53.6253C82.7378 53.889 83.1061 54.0005 83.4565 53.917L88.6559 52.7431C88.8467 67.9451 88.5158 77.008 87.9742 83.5231C86.9368 83.6004 85.9091 83.6568 84.8745 83.7282L83.7729 80.4098C83.6373 79.9819 83.2332 79.6968 82.7846 79.7125C82.4676 79.7236 82.1746 79.8845 81.9951 80.1461C81.8156 80.4076 81.7708 80.7388 81.8745 81.0387L82.812 83.8649C81.8906 83.9252 80.9655 83.9928 80.0463 84.0485L79.4428 80.8746C79.359 80.3947 78.9416 80.045 78.4545 80.0465C78.1545 80.0474 77.8708 80.1829 77.6816 80.4157C77.4924 80.6484 77.4176 80.9538 77.4779 81.2477L78.0326 84.1716C76.5962 84.2536 75.1686 84.3173 73.7376 84.3884L72.9798 59.673C72.9718 59.4028 72.8547 59.1473 72.6553 58.9648C72.4558 58.7823 72.191 58.6883 71.9211 58.7042C71.9166 58.7048 71.912 58.7055 71.9075 58.7062C50.6451 60.2732 36.1788 60.9181 23.0001 61.3879C22.4532 61.4081 22.0241 61.8642 22.0372 62.4113L22.5489 84.6892C21.878 84.6641 21.209 84.6363 20.5391 84.6091L21.1505 83.4196C21.3187 83.1032 21.3048 82.7209 21.114 82.4176C20.9232 82.1143 20.5847 81.9362 20.2266 81.9508C19.8616 81.9656 19.5336 82.1782 19.3711 82.5055L18.3379 84.5192C17.6315 84.488 16.9201 84.4669 16.2148 84.4333C16.184 84.1409 16.1587 83.8406 16.1289 83.5465L18.4043 80.9059C18.6662 80.6109 18.7302 80.1895 18.5678 79.83C18.4054 79.4706 18.0468 79.2402 17.6524 79.2418C17.3576 79.2425 17.0781 79.3733 16.8887 79.5992L15.8613 80.7926C15.7958 80.0576 15.7371 79.3107 15.6777 78.566L17.6719 76.7534C17.9818 76.4801 18.0916 76.0444 17.9485 75.6568C17.8053 75.2693 17.4385 75.0096 17.0254 75.0034C16.7655 74.9987 16.514 75.0954 16.3242 75.2729L15.4902 76.0327C15.1268 70.797 14.9269 65.3029 14.8574 59.6027L17.9883 58.2745C18.4397 58.0914 18.6935 57.6096 18.5893 57.1337C18.485 56.6579 18.0531 56.3263 17.5664 56.3487C17.4425 56.3542 17.3206 56.3826 17.207 56.4327L14.8379 57.4366C14.8334 56.6519 14.8173 55.8861 14.8183 55.0928L18.336 54.4717C18.8517 54.3852 19.2138 53.916 19.1667 53.3952C19.1195 52.8744 18.6792 52.4779 18.1563 52.4853C18.0993 52.4863 18.0424 52.4922 17.9864 52.5029L14.832 53.0615C14.8394 51.9998 14.8619 50.9136 14.8789 49.8368L18.4747 48.6981C18.9604 48.5533 19.261 48.068 19.1742 47.5686C19.0875 47.0692 18.6409 46.7137 18.1348 46.7411C18.0451 46.7454 17.9564 46.7619 17.8711 46.7899L14.9101 47.7294C15.1 38.8396 15.5946 29.4716 16.4199 19.5881C18.0962 19.323 19.7782 19.0793 21.4649 18.8498ZM53.1414 20.3029C52.6065 20.3143 52.1753 20.7447 52.1629 21.2795L51.6257 44.9617C51.6187 45.2559 51.7417 45.5383 51.9619 45.7336C52.182 45.929 52.477 46.0174 52.7683 45.9754L60.4326 44.8679C60.9331 44.7959 61.3011 44.3617 61.29 43.8562L60.8017 21.803C60.7902 21.2896 60.3918 20.8684 59.8798 20.8283L53.241 20.3049C53.2079 20.3026 53.1746 20.3019 53.1414 20.3029ZM54.1395 22.3811L58.8212 22.7503L59.2704 43.0144L53.6512 43.8269L54.1395 22.3811ZM83.1206 59.1515C82.9926 59.1738 82.8674 59.2232 82.7514 59.298C82.2874 59.597 82.1536 60.2148 82.4526 60.6788C82.7516 61.1429 83.3714 61.2767 83.8354 60.9777C84.2994 60.6787 84.4333 60.0589 84.1343 59.5948C83.91 59.2468 83.5045 59.0845 83.1206 59.1515ZM71.011 60.7667L71.7395 84.488C70.7471 84.5338 69.7526 84.5841 68.7629 84.6247L68.464 80.9176C68.4291 80.3937 67.9949 79.9859 67.4699 79.984C67.1876 79.9828 66.9179 80.1009 66.7274 80.3092C66.537 80.5176 66.4434 80.7967 66.4698 81.0778L66.7609 84.695C65.2871 84.7504 63.8149 84.8034 62.3467 84.8474L63.1573 81.816C63.2455 81.5051 63.178 81.1706 62.976 80.9182C62.774 80.6658 62.4624 80.5266 62.1397 80.5445C61.7023 80.5691 61.3319 80.8755 61.2256 81.3004L60.2588 84.9157C58.9102 84.9512 57.5714 84.9658 56.2274 84.9919L57.2821 82.5368C57.4211 82.2259 57.3924 81.8657 57.2059 81.5808C57.0194 81.2959 56.7007 81.1255 56.3603 81.1285C55.9582 81.132 55.5974 81.3759 55.4442 81.7477L54.0321 85.0349C52.7745 85.0545 51.516 85.076 50.2625 85.0876L51.4031 82.1988C51.5322 81.8842 51.4925 81.5256 51.2978 81.2467C51.1031 80.9679 50.78 80.8071 50.4402 80.8199C50.0391 80.8354 49.6861 81.0892 49.5437 81.4644L48.1101 85.0954C46.897 85.1021 45.6827 85.1098 44.4733 85.1091L45.1022 84.0622C45.2913 83.7576 45.3029 83.3751 45.1327 83.0596C44.9624 82.7441 44.6363 82.5439 44.278 82.5348C43.9123 82.5255 43.5708 82.7165 43.3873 83.0328L42.1412 85.111C36.2355 85.0839 30.3731 84.9692 24.551 84.7712L24.0588 63.3449C36.7579 62.8862 50.8596 62.2368 71.011 60.7667ZM61.7959 67.1067C61.7724 67.1066 61.749 67.1072 61.7256 67.1087L29.2893 69.1966C28.7381 69.2322 28.3201 69.7079 28.3557 70.2591C28.3913 70.8104 28.867 71.2284 29.4182 71.1927L61.8545 69.1048C62.3917 69.0697 62.8047 68.6156 62.7889 68.0775C62.7732 67.5394 62.3342 67.1103 61.7959 67.1067ZM75.6009 67.4349C75.4729 67.4572 75.3477 67.5046 75.2317 67.5794C74.7677 67.8784 74.6339 68.4982 74.9329 68.9622C75.2319 69.4262 75.8517 69.5601 76.3158 69.2611C76.7798 68.9621 76.9116 68.3412 76.6126 67.8782C76.3884 67.5302 75.9848 67.3679 75.6009 67.4349ZM82.687 69.347C82.559 69.3693 82.4338 69.4168 82.3178 69.4915C81.8538 69.7905 81.72 70.4104 82.019 70.8744C82.318 71.3384 82.9378 71.4722 83.4018 71.1732C83.8649 70.8742 83.9977 70.2544 83.6987 69.7904C83.4745 69.4424 83.0709 69.28 82.687 69.347ZM59.7822 76.2808C59.7254 76.2785 59.6686 76.2812 59.6123 76.2886L50.6453 77.4331C50.2907 77.4784 49.9873 77.7094 49.8493 78.0391C49.7113 78.3689 49.7597 78.7471 49.9762 79.0315C50.1928 79.3158 50.5446 79.463 50.8992 79.4176L59.8662 78.273C60.3841 78.2099 60.7665 77.7594 60.7445 77.2381C60.7225 76.7168 60.3036 76.3 59.7822 76.2808ZM42.4634 77.2515L30.4202 77.6363C29.8679 77.6541 29.4346 78.1162 29.4524 78.6685C29.4702 79.2208 29.9324 79.6541 30.4847 79.6363L42.5259 79.2515C42.8833 79.2405 43.2076 79.0396 43.3766 78.7245C43.5456 78.4095 43.5337 78.0282 43.3453 77.7243C43.157 77.4205 42.8208 77.2402 42.4634 77.2515Z" fill="#FFD803"/>
</svg>
