<svg xmlns="http://www.w3.org/2000/svg" width="94" height="94" viewBox="0 0 94 94" fill="none">
  <g clip-path="url(#clip0_1748_298)">
    <path d="M41.6994 74.2497L20.1573 52.7076C19.3916 51.9418 19.3916 50.7022 20.1573 49.9384L22.9264 47.1693C23.6922 46.4036 24.9318 46.4036 25.6956 47.1693L43.084 64.5577L87.8897 19.752C88.6554 18.9863 89.8951 18.9863 90.6588 19.752L93.428 22.5212C94.1937 23.2869 94.1937 24.5265 93.428 25.2903L44.4686 74.2497C43.7048 75.0154 42.4632 75.0154 41.6994 74.2497Z" fill="url(#paint0_linear_1748_298)"/>
    <path opacity="0.05" d="M31.9058 53.3816L26.3682 58.9194L34.6756 67.2266L40.2132 61.6888L31.9058 53.3816Z" fill="black"/>
    <path opacity="0.07" d="M32.5982 54.074L27.0605 59.6118L33.9832 66.5342L39.5208 60.9964L32.5982 54.074Z" fill="black"/>
    <path d="M22.1154 74.2497L0.573317 52.7076C-0.192408 51.9418 -0.192408 50.7022 0.573317 49.9384L3.34246 47.1693C4.10818 46.4036 5.34784 46.4036 6.1116 47.1693L23.5 64.5577L68.3057 19.752C69.0714 18.9863 70.3111 18.9863 71.0748 19.752L73.844 22.5212C74.6097 23.2869 74.6097 24.5265 73.844 25.2903L24.8846 74.2497C24.1208 75.0154 22.8792 75.0154 22.1154 74.2497Z" fill="url(#paint1_linear_1748_298)"/>
  </g>
  <defs>
    <linearGradient id="paint0_linear_1748_298" x1="56.7926" y1="15.2811" x2="56.7926" y2="71.6568" gradientUnits="userSpaceOnUse">
      <stop stop-color="#F1CC03"/>
      <stop offset="1" stop-color="#FFD803"/>
    </linearGradient>
    <linearGradient id="paint1_linear_1748_298" x1="37.2087" y1="17.6135" x2="37.2087" y2="80.6536" gradientUnits="userSpaceOnUse">
      <stop stop-color="#FFEB7B"/>
      <stop offset="1" stop-color="#FFED8A"/>
    </linearGradient>
    <clipPath id="clip0_1748_298">
      <rect width="94" height="94" fill="white"/>
    </clipPath>
  </defs>
</svg>
