<svg id="Слой_1" data-name="Слой 1" xmlns="http://www.w3.org/2000/svg" xmlns:xlink="http://www.w3.org/1999/xlink" viewBox="0 0 184.9 160.52"><defs><style>.cls-1{fill:#ffd803;}.cls-2{fill:url(#Безымянный_градиент);}.cls-3{fill:url(#Безымянный_градиент_2);}</style><linearGradient id="Безымянный_градиент" x1="3.02" y1="-744.27" x2="163.66" y2="-869.26" gradientTransform="matrix(1, 0, 0, -1, 0, -702.22)" gradientUnits="userSpaceOnUse"><stop offset="0.14" stop-color="#ffd803"/><stop offset="0.88" stop-color="#083372"/></linearGradient><linearGradient id="Безымянный_градиент_2" x1="66.54" y1="967.21" x2="196.65" y2="1033.98" gradientTransform="translate(-5.9 -900.48)" gradientUnits="userSpaceOnUse"><stop offset="0.14" stop-color="#ffd803"/><stop offset="0.2" stop-color="#ceb719"/><stop offset="0.27" stop-color="#a0982e"/><stop offset="0.35" stop-color="#777d40"/><stop offset="0.43" stop-color="#556650"/><stop offset="0.52" stop-color="#39535c"/><stop offset="0.61" stop-color="#234566"/><stop offset="0.71" stop-color="#143b6d"/><stop offset="0.83" stop-color="#0b3571"/><stop offset="1" stop-color="#083372"/></linearGradient></defs><g id="Слой_2" data-name="Слой 2"><path class="cls-1" d="M70,20.5A64.1,64.1,0,0,0,31.7,136c6.3-11.9,19.6-17.8,30.8-24.8A27.6,27.6,0,1,1,97.7,84.7v1h0V123c0,22.5,11.1,40.6,29.7,53.3l6.8,4.7V85.2C134.2,49.9,105.3,20.5,70,20.5Z" transform="translate(-5.9 -20.48)"/><path class="cls-2" d="M96.6,110.4c-23.1-.1-25.1,1.4-40.2-1.6-11.9-2.3-28.3-17.5-25.7-42.5,4-38.9,36.9-45.8,36.9-45.8s-23.5-1.3-43.8,20C11,53.9,5.8,66.9,6,84.7c.2,20.5,9.6,34.3,15.4,41.8a62.32,62.32,0,0,0,20.3,15.7c14.2,9.1,59.6,5.5,101.5,5.5h5.7V110.3h-6.7C131.2,110.7,115.5,110.5,96.6,110.4Z" transform="translate(-5.9 -20.48)"/><polyline class="cls-3" points="141 79.22 141 136.72 184.9 108.11"/></g></svg>